<svg xmlns="http://www.w3.org/2000/svg" version="1.1" viewBox="475.152 387.624 615.822 647.082" style="max-height: 500px" width="615.822" height="647.082">
<path transform="translate(797.12890625,495.1328125)" fill="#E7E3DD" d="M0 0 C2.7473833 2.18071107 5.31164557 4.46967972 7.87109375 6.8671875 C8.74765625 7.61871094 9.62421875 8.37023437 10.52734375 9.14453125 C18.97115435 16.8240314 24.38566355 26.09603096 30.10058594 35.87304688 C31.98489999 39.05964748 33.92747558 42.20566514 35.87890625 45.3515625 C37.18997797 47.50188766 38.49989893 49.65291493 39.80859375 51.8046875 C40.4425708 52.81684326 41.07654785 53.82899902 41.72973633 54.87182617 C45.94415121 61.92596385 45.94415121 61.92596385 45.63671875 65.88671875 C44.76273438 67.36205078 44.76273438 67.36205078 43.87109375 68.8671875 C43.45545166 69.62056396 43.03980957 70.37394043 42.61157227 71.15014648 C41.02021828 74.00507515 39.35820495 76.81031981 37.68359375 79.6171875 C36.40689597 81.78086299 35.13087704 83.94493916 33.85546875 86.109375 C32.86643555 87.78338379 32.86643555 87.78338379 31.85742188 89.49121094 C28.68183949 94.88845198 25.55743099 100.31488561 22.43359375 105.7421875 C21.81637451 106.81283447 21.19915527 107.88348145 20.56323242 108.98657227 C17.34085407 114.57634407 14.12258608 120.16846846 10.90625 125.76171875 C4.32878193 137.19243259 -2.26981754 148.60266782 -9.12890625 159.8671875 C-13.22476657 155.21280077 -16.0192903 149.94941586 -19.00390625 144.5546875 C-23.73534425 136.0890812 -28.53999142 127.67307005 -33.44140625 119.3046875 C-34.60681195 117.31122195 -35.77217783 115.31773313 -36.9375 113.32421875 C-39.22845842 109.40680615 -39.22845842 109.40680615 -41.52001953 105.48974609 C-42.68585837 103.49315176 -43.84603532 101.49340961 -45.00390625 99.4921875 C-45.62007812 98.43257812 -46.23625 97.37296875 -46.87109375 96.28125 C-48.12890625 93.8671875 -48.12890625 93.8671875 -48.12890625 91.8671875 C-48.78890625 91.8671875 -49.44890625 91.8671875 -50.12890625 91.8671875 C-50.40186523 92.58672607 -50.67482422 93.30626465 -50.95605469 94.04760742 C-52.10951396 96.8205677 -53.42629312 99.3619812 -54.89453125 101.98046875 C-55.44737793 102.96829346 -56.00022461 103.95611816 -56.56982422 104.97387695 C-57.16682129 106.03179443 -57.76381836 107.08971191 -58.37890625 108.1796875 C-59.00297363 109.28981201 -59.62704102 110.39993652 -60.27001953 111.54370117 C-65.01260317 119.95306521 -69.85136731 128.30410186 -74.73535156 136.63208008 C-79.25561179 144.34572992 -83.70379282 152.09877584 -88.12890625 159.8671875 C-93.641218 169.5421836 -99.21315449 179.18001327 -104.83984375 188.7890625 C-109.32056771 196.4529252 -113.73397377 204.15397585 -118.12890625 211.8671875 C-123.6415446 221.54199969 -129.21315192 231.18000887 -134.83984375 240.7890625 C-139.32056771 248.4529252 -143.73397377 256.15397585 -148.12890625 263.8671875 C-153.08269708 272.56120893 -158.07312012 281.23190479 -163.12890625 289.8671875 C-167.97658834 298.15633247 -172.7996153 306.45916196 -177.57861328 314.78808594 C-178.59187529 316.55269751 -179.60837686 318.31544769 -180.625 320.078125 C-189.81491754 336.12759245 -197.14206107 349.0508865 -193.00390625 367.9296875 C-189.58366179 380.01875432 -182.87352846 389.99019594 -172.1328125 396.75390625 C-160.50754245 402.87013113 -148.36456018 404.89676684 -135.44140625 401.6796875 C-111.75040528 394.29995794 -103.66186439 374.27631185 -92.09527588 354.04986572 C-88.62351277 347.97912672 -85.126495 341.92307025 -81.62890625 335.8671875 C-80.37879343 333.70058592 -79.12879362 331.53391914 -77.87890625 329.3671875 C-70.37890625 316.3671875 -62.87890625 303.3671875 -55.37890625 290.3671875 C-54.76007568 289.29452637 -54.14124512 288.22186523 -53.50366211 287.11669922 C-52.25455107 284.95161679 -51.00536496 282.78657768 -49.75610352 280.62158203 C-46.61688316 275.18103044 -43.47900062 269.73971534 -40.34375 264.296875 C-34.32143296 253.84512551 -28.28221288 243.40419202 -22.19140625 232.9921875 C-16.76931926 223.72154819 -11.42566613 214.40782051 -6.1086731 205.07672119 C-0.93511838 195.99940114 4.30251529 186.96147217 9.58203125 177.9453125 C14.0627564 170.28144776 18.47603599 162.58032915 22.87109375 154.8671875 C28.41095308 145.14594244 34.00484307 135.45823882 39.65454102 125.80029297 C43.89726666 118.54506993 48.11102618 111.27362678 52.30859375 103.9921875 C52.92984131 102.91469238 53.55108887 101.83719727 54.19116211 100.72705078 C57.36186393 95.22580723 60.52947642 89.72279486 63.6953125 84.21875 C66.80733285 78.81007537 69.92837669 73.40669654 73.05566406 68.00683594 C74.2664278 65.91291156 75.47411026 63.8172025 76.67871094 61.71972656 C78.40113058 58.72228129 80.13479354 55.73160821 81.87109375 52.7421875 C82.37463379 51.86014648 82.87817383 50.97810547 83.39697266 50.06933594 C90.75003349 37.48705297 100.23882245 28.8158504 114.4296875 24.5234375 C124.78056665 22.54960356 136.10767769 22.66197084 145.87109375 26.8671875 C146.53882813 27.12242187 147.2065625 27.37765625 147.89453125 27.640625 C159.39934117 32.59724271 167.47806179 42.8138634 172.18359375 54.1171875 C176.51512683 65.30241215 176.49372489 78.77089772 171.81787109 89.84912109 C167.76452237 98.48887884 162.71084701 106.65466979 157.87109375 114.8671875 C156.73580989 116.81181784 155.60167909 118.75712184 154.46875 120.703125 C152.75355568 123.64786256 151.03692319 126.59169615 149.31494141 129.5324707 C144.77982597 137.28032327 140.31500092 145.06685819 135.87109375 152.8671875 C130.35862516 162.54209534 124.78684676 172.18001113 119.16015625 181.7890625 C114.67943229 189.4529252 110.26602623 197.15397585 105.87109375 204.8671875 C100.3584554 214.54199969 94.78684808 224.18000887 89.16015625 233.7890625 C84.6794311 241.45292724 80.26615151 249.15404585 75.87109375 256.8671875 C70.33123442 266.58843256 64.73734443 276.27613618 59.08764648 285.93408203 C52.93342633 296.45803375 46.84739379 307.02098887 40.76220703 317.58496094 C37.63429227 323.01378692 34.50250927 328.44038031 31.37109375 333.8671875 C30.12107496 336.03384333 28.87107497 338.20051 27.62109375 340.3671875 C20.12109375 353.3671875 12.62109375 366.3671875 5.12109375 379.3671875 C4.50202148 380.4404126 3.88294922 381.5136377 3.24511719 382.61938477 C1.9989551 384.77906354 0.7522132 386.93840787 -0.49511719 389.09741211 C-3.68375154 394.61834997 -6.86111758 400.14530431 -10.01953125 405.68359375 C-34.03581067 447.73023106 -61.08200765 480.24289559 -108.94140625 494.6796875 C-109.5859375 494.87473877 -110.23046875 495.06979004 -110.89453125 495.27075195 C-122.41752663 498.555791 -133.74497251 499.24008762 -145.65307617 499.23779297 C-148.16330296 499.24213885 -150.67172604 499.27850031 -153.18164062 499.31640625 C-188.51088909 499.56143587 -222.12744187 484.30171379 -247.42407227 459.9855957 C-269.1786511 438.48127497 -283.43126199 411.97473929 -289.12890625 381.8671875 C-289.46535156 380.20429687 -289.46535156 380.20429687 -289.80859375 378.5078125 C-297.46528278 334.66540132 -279.60956165 297.09760741 -258.12109375 260.28710938 C-254.91544917 254.78408618 -251.74320165 249.26189541 -248.56640625 243.7421875 C-243.20644188 234.44416236 -237.81032389 225.16781606 -232.39599609 215.90136719 C-226.22971571 205.34098468 -220.12394675 194.74591984 -214.02001953 184.14941406 C-210.89210477 178.72058808 -207.76032177 173.29399469 -204.62890625 167.8671875 C-203.37888746 165.70053167 -202.12888747 163.533865 -200.87890625 161.3671875 C-188.37890625 139.70052083 -175.87890625 118.03385417 -163.37890625 96.3671875 C-162.76007568 95.29452637 -162.14124512 94.22186523 -161.50366211 93.11669922 C-160.25455107 90.95161679 -159.00536496 88.78657768 -157.75610352 86.62158203 C-154.61688316 81.18103044 -151.47900062 75.73971534 -148.34375 70.296875 C-145.22974427 64.89125674 -142.10950157 59.4892693 -138.98730469 54.08837891 C-137.10402134 50.82405408 -135.22952011 47.55478811 -133.35546875 44.28515625 C-132.13437998 42.16651368 -130.91303564 40.04801839 -129.69140625 37.9296875 C-129.14863037 36.97755371 -128.60585449 36.02541992 -128.04663086 35.04443359 C-114.42977538 11.51440768 -97.49431748 -4.6531638 -71.06640625 -12.40625 C-47.01893044 -18.3541629 -20.45754541 -13.94484369 0 0 Z"/>
<path transform="translate(928,708)" fill="#E7E3DD" d="M0 0 C2.79563775 2.49384792 4.43253404 5.25215081 6.265625 8.50390625 C6.90056885 9.62361816 7.5355127 10.74333008 8.18969727 11.89697266 C8.52494415 12.4934259 8.86019104 13.08987915 9.20559692 13.70440674 C10.62992079 16.23841553 12.06489886 18.76633761 13.4990387 21.2947998 C14.24053345 22.60249586 14.98144351 23.91052361 15.7217865 25.21887207 C19.30012827 31.54129517 22.92614495 37.83577948 26.5625 44.125 C27.80210764 46.27081929 29.04169094 48.41665265 30.28125 50.5625 C31.19970703 52.15191406 31.19970703 52.15191406 32.13671875 53.7734375 C34.0203505 57.03524007 35.90122321 60.29861844 37.78125 63.5625 C43.82747312 74.05738916 49.88963481 84.54230539 56 95 C62.74701194 106.54729516 69.43339318 118.12902027 76.10888672 129.71777344 C79.23680148 135.14659942 82.36858448 140.57319281 85.5 146 C86.75001879 148.16665583 88.00001878 150.3333225 89.25 152.5 C89.86875 153.5725 90.4875 154.645 91.125 155.75 C93 159 94.875 162.25 96.75 165.5 C97.3694751 166.57362793 97.9889502 167.64725586 98.62719727 168.75341797 C99.87032446 170.90843107 101.11300425 173.06370233 102.35522461 175.21923828 C105.24280063 180.22861593 108.13430985 185.23556162 111.04275513 190.23284912 C112.06088711 191.98270181 113.07753333 193.73340943 114.09375 195.484375 C115.36036106 197.66576071 116.6296753 199.84558025 117.90234375 202.0234375 C127.04544272 217.79020372 133.98283267 230.78077421 130.3125 249.5078125 C126.2589964 263.79641269 118.50196137 274.06314834 105.78515625 281.67578125 C98.24951332 285.25864654 91.52518087 286.55727624 83.1875 286.5 C82.21844727 286.49427979 81.24939453 286.48855957 80.25097656 286.48266602 C72.61741129 286.29253109 66.59450899 285.0096243 60 281 C59.1234375 280.49210937 58.246875 279.98421875 57.34375 279.4609375 C46.49515643 272.56619882 40.46715438 261.8728783 34.375 250.875 C33.32422464 249.00293465 32.27019299 247.13272549 31.21612549 245.26251221 C30.50475573 243.99971193 29.79442685 242.73632472 29.08514404 241.47235107 C25.79224046 235.60769725 22.40579825 229.79975019 19 224 C13.59517645 214.77274197 8.27346843 205.50003934 2.97949219 196.20898438 C-1.63502804 188.11255867 -6.29095255 180.04193491 -11 172 C-16.05630906 163.36502471 -21.04609403 154.69394979 -26 146 C-32.20713165 135.10760109 -38.48398853 124.25764092 -44.81640625 113.4375 C-45.32574707 112.55707031 -45.83508789 111.67664063 -46.35986328 110.76953125 C-47.5463226 108.76607865 -48.77419154 106.78695692 -50.02685547 104.82421875 C-50.6870166 103.76847656 -51.34717773 102.71273437 -52.02734375 101.625 C-52.94954712 100.19027344 -52.94954712 100.19027344 -53.89038086 98.7265625 C-55 96 -55 96 -54.35864258 93.46801758 C-53.91029053 92.65357178 -53.46193848 91.83912598 -53 91 C-52.57428711 90.18104248 -52.14857422 89.36208496 -51.70996094 88.51831055 C-51.22301758 87.64988525 -50.73607422 86.78145996 -50.234375 85.88671875 C-49.68144775 84.89873291 -49.12852051 83.91074707 -48.55883789 82.89282227 C-47.96192139 81.83506592 -47.36500488 80.77730957 -46.75 79.6875 C-46.12665771 78.57882568 -45.50331543 77.47015137 -44.86108398 76.32788086 C-39.52927404 66.87478749 -34.07575516 57.49486434 -28.5859375 48.1328125 C-24.75075204 41.58819254 -20.96928385 35.01307251 -17.1875 28.4375 C-13.04520917 21.24363832 -8.89161062 14.05851459 -4.625 6.9375 C-4.08008911 6.02665649 -4.08008911 6.02665649 -3.52416992 5.09741211 C-1.13049261 1.13049261 -1.13049261 1.13049261 0 0 Z"/>
<path transform="translate(1032.578125,416.7265625)" fill="#201E7C" d="M0 0 C9.26279082 7.45972848 13.97728934 18.65741697 15.421875 30.2734375 C16.72195823 48.7748529 16.79270387 67.42699142 4.60546875 82.5234375 C-5.2186028 93.00244715 -19.6503177 99.66297357 -33.96801758 100.39575195 C-54.63143736 101.03454825 -72.71132145 98.67356173 -88.578125 84.2734375 C-99.62557406 71.47935618 -102.62236716 54.80356868 -101.578125 38.2734375 C-100.42558481 23.33911386 -96.55226783 10.60102832 -85.453125 0.1484375 C-61.177595 -19.31429679 -24.73634966 -16.56585841 0 0 Z"/>
</svg>