<svg xmlns="http://www.w3.org/2000/svg" version="1.1" viewBox="173 168 157 167" style="max-height: 500px" width="157" height="167">
<path transform="translate(248,232)" fill="#F2F2F2" d="M0 0 C0.99 0.33 1.98 0.66 3 1 C3 1.66 3 2.32 3 3 C16.53 3 30.06 3 44 3 C45.98 6.465 45.98 6.465 48 10 C35.13 10 22.26 10 9 10 C13.00697097 17.30315692 13.00697097 17.30315692 18.19189453 17.82299805 C19.83893681 17.83670574 21.48655159 17.81426571 23.1328125 17.76171875 C24.00646454 17.76452347 24.88011658 17.76732819 25.78024292 17.7702179 C28.56308995 17.77548791 31.3425898 17.7349083 34.125 17.6875 C36.91402557 17.65601953 39.70197135 17.63471853 42.49118042 17.63691711 C44.22415685 17.63678698 45.95727414 17.61646269 47.68972778 17.57389832 C53.51564588 17.55254522 53.51564588 17.55254522 56.05419922 19.89770508 C57 22 57 22 57 24 C44.46 24 31.92 24 19 24 C20.32 25.98 21.64 27.96 23 30 C23 30.66 23 31.32 23 32 C24.78615723 31.96072388 24.78615723 31.96072388 26.60839844 31.9206543 C31.02878001 31.83011439 35.44907977 31.77273714 39.87011719 31.7253418 C41.78301783 31.70020619 43.69582251 31.66609216 45.60839844 31.62280273 C48.35896473 31.56210748 51.10826099 31.53378155 53.859375 31.51171875 C54.71368103 31.48591232 55.56798706 31.4601059 56.44818115 31.43351746 C62.39148242 31.43071366 62.39148242 31.43071366 65.57128906 34.40551758 C67 37 67 37 67 39 C54.46 39 41.92 39 29 39 C30.32 40.98 31.64 42.96 33 45 C33 45.66 33 46.32 33 47 C34.22630127 46.97905273 35.45260254 46.95810547 36.71606445 46.93652344 C41.26135604 46.86417934 45.80659667 46.81822066 50.35229492 46.78027344 C52.3204809 46.76014519 54.28860699 46.73283981 56.2565918 46.69824219 C59.0839718 46.64977689 61.91056201 46.62704382 64.73828125 46.609375 C66.06029289 46.57840729 66.06029289 46.57840729 67.40901184 46.54681396 C73.48459257 46.54457716 73.48459257 46.54457716 76.07885742 48.83691406 C77 51 77 51 77 54 C64.79 54.33 52.58 54.66 40 55 C43.06799279 60.87553366 43.06799279 60.87553366 45.97938538 61.73257446 C46.67205002 61.72495087 47.36471466 61.71732727 48.07836914 61.70947266 C48.86921402 61.71612946 49.6600589 61.72278625 50.47486877 61.72964478 C51.74221107 61.69718155 51.74221107 61.69718155 53.03515625 61.6640625 C54.34775673 61.670392 54.34775673 61.670392 55.68687439 61.67684937 C58.47961296 61.68771708 61.26998141 61.65962098 64.0625 61.625 C66.85826671 61.60097519 69.65297333 61.58574836 72.44883728 61.59457397 C74.1873133 61.59916069 75.92597068 61.5843553 77.66407776 61.54824829 C83.51387099 61.55086597 83.51387099 61.55086597 86.05639648 63.89990234 C87 66 87 66 87 68 C74.46 68.33 61.92 68.66 49 69 C53.51434579 75.40396566 53.51434579 75.40396566 58.03466797 81.80371094 C58.59814941 82.60583008 59.16163086 83.40794922 59.7421875 84.234375 C60.60626221 85.45979004 60.60626221 85.45979004 61.48779297 86.70996094 C63 89 63 89 65 93 C23.09 93 -18.82 93 -62 93 C-60.51220655 89.28051636 -59.45876534 86.9726251 -57.21484375 83.86328125 C-56.68439453 83.12142578 -56.15394531 82.37957031 -55.60742188 81.61523438 C-55.05634766 80.85533203 -54.50527344 80.09542969 -53.9375 79.3125 C-52.84133359 77.78856133 -51.74622902 76.26385815 -50.65234375 74.73828125 C-50.16757568 74.06837158 -49.68280762 73.39846191 -49.18334961 72.70825195 C-47.94267284 71.00342973 -47.94267284 71.00342973 -47 69 C-58.88 68.67 -70.76 68.34 -83 68 C-80 63 -80 63 -79 62 C-76.1883662 61.91138008 -73.40141745 61.88477645 -70.58984375 61.90234375 C-69.74780899 61.9037587 -68.90577423 61.90517365 -68.03822327 61.90663147 C-65.33794665 61.91224737 -62.63775172 61.92480252 -59.9375 61.9375 C-58.11132932 61.94251295 -56.28515734 61.94707621 -54.45898438 61.95117188 C-49.97262458 61.96222196 -45.48632616 61.97949721 -41 62 C-40.71125 61.401875 -40.4225 60.80375 -40.125 60.1875 C-39 58 -39 58 -37 55 C-48.88 54.67 -60.76 54.34 -73 54 C-71 49 -71 49 -69 47 C-66.18101064 46.82737035 -63.45130111 46.77152212 -60.6328125 46.796875 C-58.92577362 46.7863261 -57.21874185 46.77456961 -55.51171875 46.76171875 C-52.81654943 46.75139996 -50.12237069 46.75001951 -47.42724609 46.77001953 C-44.82824437 46.78477847 -42.23165872 46.76233681 -39.6328125 46.734375 C-38.42638596 46.75742706 -38.42638596 46.75742706 -37.19558716 46.78094482 C-34.62158569 46.80060515 -34.62158569 46.80060515 -31 46 C-29.68 44.02 -28.36 42.04 -27 40 C-38.88 39.67 -50.76 39.34 -63 39 C-61 35 -61 35 -59 32 C-56.14252359 31.73618298 -53.48910965 31.65528804 -50.6328125 31.69921875 C-48.92577738 31.69157599 -47.21874588 31.68308597 -45.51171875 31.67382812 C-42.81660943 31.67603924 -40.12221998 31.68752843 -37.42724609 31.71508789 C-34.82835542 31.73579713 -32.23165849 31.71978168 -29.6328125 31.69921875 C-28.82852814 31.71772385 -28.02424377 31.73622894 -27.19558716 31.7552948 C-24.62228053 31.78610899 -24.62228053 31.78610899 -21 31 C-19.68 29.02 -18.36 27.04 -17 25 C-28.88 24.67 -40.76 24.34 -53 24 C-50 19 -50 19 -49 18 C-46.23684512 17.91401485 -43.49377286 17.8873645 -40.73046875 17.89453125 C-39.02016969 17.88107345 -37.30988236 17.86604998 -35.59960938 17.84960938 C-32.8933873 17.82677309 -30.18848357 17.81249547 -27.48217773 17.82495117 C-24.87647136 17.83376147 -22.27340233 17.80488094 -19.66796875 17.76953125 C-18.45683662 17.78787773 -18.45683662 17.78787773 -17.22123718 17.80659485 C-14.63582074 17.81512751 -14.63582074 17.81512751 -11 17 C-9.68 15.02 -8.36 13.04 -7 11 C-18.88 10.67 -30.76 10.34 -43 10 C-41 5 -41 5 -39 3 C-36.13563176 2.75418157 -33.3609686 2.62630619 -30.4921875 2.5859375 C-29.65156769 2.56657135 -28.81094788 2.5472052 -27.94485474 2.5272522 C-25.25500697 2.46738342 -22.56511657 2.42104229 -19.875 2.375 C-18.05336656 2.3368269 -16.2317513 2.29777556 -14.41015625 2.2578125 C-9.94025148 2.16167602 -5.47026221 2.07767231 -1 2 C-0.67 1.34 -0.34 0.68 0 0 Z"/>
<path transform="translate(218,221)" fill="#FBFBFB" d="M0 0 C8.29269378 -0.09263761 16.58517177 -0.16373258 24.87825489 -0.20724869 C28.72899957 -0.22813325 32.57939055 -0.25646573 36.42993164 -0.30175781 C40.14522978 -0.34518613 43.86018749 -0.36913056 47.57571983 -0.37950897 C48.99395801 -0.38690591 50.41217733 -0.40135052 51.83027077 -0.42292023 C53.81480397 -0.45190802 55.79967898 -0.4536335 57.78442383 -0.45410156 C58.91471512 -0.46298401 60.04500641 -0.47186646 61.20954895 -0.48101807 C64 0 64 0 65.88847351 1.90338135 C67 4 67 4 67 6 C43.9 6 20.8 6 -3 6 C-2.01 4.02 -1.02 2.04 0 0 Z"/>
<path transform="translate(230.87295532226563,205.75949096679688)" fill="#CECECE" d="M0 0 C1.13917374 0.00666183 1.13917374 0.00666183 2.30136108 0.01345825 C3.16210236 0.01360931 4.02284363 0.01376038 4.90966797 0.01391602 C5.83991791 0.02423859 6.77016785 0.03456116 7.72860718 0.04519653 C8.68020721 0.04802643 9.63180725 0.05085632 10.61224365 0.05377197 C13.6589706 0.06498914 16.70540621 0.09009641 19.75204468 0.11550903 C21.81454044 0.12553685 23.8770408 0.13466304 25.93954468 0.14285278 C31.00215735 0.16493349 36.06455158 0.19947374 41.12704468 0.24050903 C42.44704468 2.55050903 43.76704468 4.86050903 45.12704468 7.24050903 C28.29704468 7.24050903 11.46704468 7.24050903 -5.87295532 7.24050903 C-3.13793026 0.40294638 -3.13793026 0.40294638 0 0 Z"/>
<path transform="translate(239,191)" fill="#D6D6D6" d="M0 0 C2.33837891 -0.34057617 2.33837891 -0.34057617 5.2265625 -0.29296875 C6.7734375 -0.2784668 6.7734375 -0.2784668 8.3515625 -0.26367188 C9.43179688 -0.23853516 10.51203125 -0.21339844 11.625 -0.1875 C12.71296875 -0.17396484 13.8009375 -0.16042969 14.921875 -0.14648438 C17.61507409 -0.11104754 20.30729374 -0.06164331 23 0 C24.32 2.31 25.64 4.62 27 7 C16.77 7 6.54 7 -4 7 C-2 3 -2 3 0 0 Z"/>
<path transform="translate(249,175)" fill="#D9D9D9" d="M0 0 C4.39158329 1.4638611 4.87947433 3.97831338 7 8 C3.37 8 -0.26 8 -4 8 C-2.68 5.36 -1.36 2.72 0 0 Z"/>
</svg>