<svg xmlns="http://www.w3.org/2000/svg" width="156" height="62" viewBox="0 0 156 62" fill="none"><path d="M53.5379 50.667H54.2025L57.7991 60.0003H57.0954L56.1181 57.4121H51.6028L50.6255 60.0003H49.9609L53.5575 50.667H53.5379ZM55.864 56.8042L53.8507 51.4709L51.8178 56.8042H55.864Z" fill="#0045CB"></path><path d="M62.959 50.7256H63.6236V56.5687L68.4906 50.7256H69.3311L65.8714 54.8236L69.5461 59.9805H68.7252L65.4218 55.353L63.6236 57.4511V59.9805H62.959V50.7256Z" fill="#0045CB"></path><path d="M70.6602 56.6078V56.5489C70.6602 54.5882 71.9111 53.0195 73.6117 53.0195C75.3122 53.0195 76.5632 54.5489 76.5632 56.5293V56.5882C76.5632 58.5686 75.3122 60.1176 73.5921 60.1176C71.872 60.1176 70.6602 58.5882 70.6602 56.6078ZM75.9181 56.6078V56.5489C75.9181 54.8627 74.8822 53.6078 73.5921 53.6078C72.3021 53.6078 71.3052 54.8823 71.3052 56.5489V56.6078C71.3052 58.294 72.3412 59.5489 73.6117 59.5489C74.8822 59.5489 75.9181 58.2744 75.9181 56.6078Z" fill="#0045CB"></path><path d="M78.4395 53.1763H79.0454V54.3332C79.4168 53.6469 79.9836 53.0391 81.0196 53.0391C82.0555 53.0391 82.6615 53.5881 82.9742 54.392C83.3652 53.7057 83.9906 53.0391 85.1048 53.0391C86.2189 53.0391 87.3331 53.9998 87.3331 55.6273V59.9998H86.7271V55.7646C86.7271 54.3528 86.1017 53.5881 85.0461 53.5881C83.9906 53.5881 83.2088 54.4116 83.2088 55.8038V59.9802H82.5833V55.7253C82.5833 54.3332 81.9578 53.5881 80.9023 53.5881C79.8468 53.5881 79.0454 54.5489 79.0454 55.8234V59.9802H78.4395V53.1763Z" fill="#0045CB"></path><path d="M89.0732 57.9998V57.9409C89.0732 56.588 90.1092 55.7449 91.6534 55.7449C93.1975 55.7449 92.9825 55.8625 93.5298 56.0194V55.5292C93.5298 54.2939 92.8261 53.6468 91.6338 53.6468C90.4415 53.6468 90.3047 53.8625 89.8356 54.137L89.601 53.588C90.2265 53.2743 90.8911 53.0586 91.6925 53.0586C92.4939 53.0586 93.0802 53.2743 93.5298 53.7253C93.9403 54.1174 94.1553 54.7253 94.1553 55.49V59.9802H93.5494V58.9017C93.1584 59.5684 92.4352 60.137 91.3797 60.137C90.3242 60.137 89.1123 59.3527 89.1123 57.9998M93.5298 57.5684V56.588C93.0216 56.4311 92.4157 56.2939 91.6338 56.2939C90.4024 56.2939 89.7183 56.9606 89.7183 57.9017V57.9606C89.7183 58.9213 90.461 59.5488 91.3993 59.5488C92.3375 59.5488 93.5298 58.686 93.5298 57.5684Z" fill="#0045CB"></path><path d="M96.2861 53.1764H96.8921V54.7843C97.3221 53.7843 98.2603 53.0196 99.4331 53.0784V53.745H99.3745C98.0649 53.745 96.8921 54.7254 96.8921 56.5882V59.9803H96.2861V53.1764Z" fill="#0045CB"></path><path d="M103.908 56.6469V56.5685C103.908 54.49 105.237 53.0391 106.879 53.0391C108.521 53.0391 108.482 53.4704 108.99 53.9802L108.599 54.4508C108.169 54.0195 107.622 53.6077 106.86 53.6077C105.609 53.6077 104.553 54.8038 104.553 56.5685V56.6273C104.553 58.4312 105.667 59.5489 106.899 59.5489C107.602 59.5489 108.169 59.1763 108.619 58.7057L109.01 59.1175C108.502 59.6665 107.837 60.1371 106.86 60.1371C105.179 60.1371 103.889 58.7253 103.889 56.6469" fill="#0045CB"></path><path d="M110.34 56.6078V56.5489C110.34 54.5882 111.591 53.0195 113.291 53.0195C114.992 53.0195 116.243 54.5489 116.243 56.5293V56.5882C116.243 58.5686 114.992 60.1176 113.272 60.1176C111.552 60.1176 110.34 58.5882 110.34 56.6078ZM115.598 56.6078V56.5489C115.598 54.8627 114.562 53.6078 113.272 53.6078C111.982 53.6078 110.985 54.8823 110.985 56.5489V56.6078C110.985 58.294 112.021 59.5489 113.291 59.5489C114.562 59.5489 115.598 58.2744 115.598 56.6078Z" fill="#0045CB"></path><path d="M118.119 53.1763H118.725V54.3332C119.096 53.6469 119.663 53.0391 120.699 53.0391C121.735 53.0391 122.341 53.5881 122.654 54.392C123.045 53.7057 123.67 53.0391 124.784 53.0391C125.899 53.0391 127.013 53.9998 127.013 55.6273V59.9998H126.407V55.7646C126.407 54.3528 125.781 53.5881 124.726 53.5881C123.67 53.5881 122.888 54.4116 122.888 55.8038V59.9802H122.263V55.7253C122.263 54.3332 121.638 53.5881 120.582 53.5881C119.526 53.5881 118.725 54.5489 118.725 55.8234V59.9802H118.119V53.1763Z" fill="#0045CB"></path><path d="M129.222 53.1764H129.828V54.6274C130.316 53.7646 131.04 53.0195 132.193 53.0195C133.346 53.0195 134.949 54.2548 134.949 56.5097V56.6078C134.949 58.8627 133.581 60.1176 132.193 60.1176C130.805 60.1176 130.297 59.3921 129.828 58.5489V61.9411H129.222V53.1372V53.1764ZM134.304 56.647V56.5489C134.304 54.7058 133.307 53.6078 132.134 53.6078C130.961 53.6078 129.808 54.745 129.808 56.5097V56.6274C129.808 58.4117 130.961 59.5293 132.134 59.5293C133.307 59.5293 134.304 58.4901 134.304 56.6274" fill="#0045CB"></path><path d="M136.355 57.9998V57.9409C136.355 56.588 137.391 55.7449 138.936 55.7449C140.48 55.7449 140.265 55.8625 140.812 56.0194V55.5292C140.812 54.2939 140.108 53.6468 138.916 53.6468C137.724 53.6468 137.606 53.8625 137.118 54.137L136.883 53.588C137.509 53.2743 138.173 53.0586 138.975 53.0586C139.776 53.0586 140.362 53.2743 140.812 53.7253C141.223 54.1174 141.438 54.7253 141.438 55.49V59.9802H140.832V58.9017C140.441 59.5684 139.717 60.137 138.662 60.137C137.606 60.137 136.395 59.3527 136.395 57.9998M140.812 57.5684V56.588C140.304 56.4311 139.698 56.2939 138.916 56.2939C137.685 56.2939 137.001 56.9606 137.001 57.9017V57.9606C137.001 58.9213 137.743 59.5488 138.681 59.5488C139.62 59.5488 140.812 58.686 140.812 57.5684Z" fill="#0045CB"></path><path d="M143.568 53.1763H144.174V54.3528C144.565 53.6273 145.21 53.0391 146.285 53.0391C147.36 53.0391 148.592 54.0391 148.592 55.5881V59.9998H147.966V55.7646C147.966 54.392 147.321 53.5881 146.168 53.5881C145.015 53.5881 144.155 54.5097 144.155 55.8234V59.9802H143.549V53.1763H143.568Z" fill="#0045CB"></path><path d="M155.258 53.1763H155.922L153.46 60.1174C152.951 61.5292 152.345 61.9998 151.485 61.9998C150.625 61.9998 150.743 61.9214 150.371 61.7253L150.586 61.1763C150.84 61.3331 151.134 61.4312 151.524 61.4312C152.111 61.4312 152.502 61.0782 152.912 59.9998L150.195 53.1959H150.879L153.205 59.2351L155.258 53.1959V53.1763Z" fill="#0045CB"></path><path d="M0 37.7647C5.04298 42.2157 11.2196 44.5686 17.885 44.5686C24.5503 44.5686 33.2485 39.5098 33.2485 31.6667C33.2485 23.8235 29.3587 21.4314 19.39 19C11.1219 17.0196 8.87407 15.4902 8.87407 11.8431C8.87407 8.19608 11.8256 6.35294 16.204 6.35294C20.5824 6.35294 23.9835 7.80392 27.9905 10.7647L31.8411 5.31372C27.2673 1.68627 22.3416 0 16.3213 0C7.68174 0 1.66145 5.15686 1.66145 12.5294C1.66145 19.902 6.70442 23.1765 16.0085 25.4314C23.6903 27.2157 26.0358 28.8431 26.0358 32.4118C26.0358 35.9804 22.9084 38.1961 18.0804 38.1961C13.2525 38.1961 8.83498 36.4706 4.33931 32.6078L0 37.7647Z" fill="#0045CB"></path><path d="M50.2344 43.9412H57.5056V7.29411H71.3445V0.627441H36.3955V7.29411H50.2344V43.9412Z" fill="#0045CB"></path><path d="M147.517 43.9412H156L144.292 27.4706L144.604 27.3921C151.211 25.5686 154.847 20.9216 154.847 14.2941C154.847 7.66666 148.709 0.627441 138.858 0.627441H119.644V43.9412H126.856V28.6863H136.805L136.864 28.7843L147.517 43.9412ZM138.291 22.3333H126.837V7.17646H138.213C144.194 7.17646 147.478 9.86274 147.478 14.7255C147.478 19.5882 143.862 22.3333 138.271 22.3333" fill="#0045CB"></path><path d="M94.3502 0.627441H87.2549L68.373 43.9412H75.7225L90.656 8.70587L105.57 43.9412H113.173L94.3502 0.627441Z" fill="#0045CB"></path><path d="M90.6955 21.647L92.5133 27.3332L98.4554 27.3136L93.647 30.8038L95.4844 36.4901L90.6955 32.9607L85.8871 36.4901L87.7244 30.8038L82.916 27.3136L88.8581 27.3332L90.6955 21.647Z" fill="#0045CB"></path></svg>