<svg xmlns="http://www.w3.org/2000/svg" version="1.1" viewBox="137 112 229 278" style="max-height: 500px" width="229" height="278">
<path transform="translate(158.79531860351563,118.87974548339844)" fill="#D21314" d="M0 0 C0.81433577 -0.00085442 1.62867154 -0.00170885 2.46768415 -0.00258917 C5.21158152 -0.00424359 7.95541851 0.0012768 10.6993103 0.00672913 C12.66017149 0.00701103 14.62103279 0.0068532 16.58189392 0.00628662 C21.91839134 0.00599878 27.25486645 0.01189338 32.59135866 0.01886058 C38.16342335 0.02509631 43.73548851 0.02569809 49.30755615 0.02688599 C59.86499435 0.02999865 70.42242224 0.03821117 80.9798559 0.04823548 C92.99660092 0.05939862 105.01334642 0.06490757 117.03009534 0.06993091 C141.75496308 0.08039383 166.47982166 0.09799203 191.2046814 0.12025452 C191.2046814 4.12637816 191.19740259 4.62996135 189.03671265 7.59681702 C188.3240625 8.59020081 188.3240625 8.59020081 187.59701538 9.60365295 C187.07567017 10.31038147 186.55432495 11.01710999 186.0171814 11.74525452 C185.48487915 12.48292053 184.9525769 13.22058655 184.40414429 13.98060608 C182.67970223 16.3669425 180.9425456 18.74367993 179.2046814 21.12025452 C177.41988889 23.57859026 175.63797479 26.0389749 173.85775757 28.50062561 C172.73599328 30.05005555 171.611274 31.59735153 170.48324585 33.14222717 C169.7092041 34.20642883 169.7092041 34.20642883 168.91952515 35.29212952 C168.24071289 36.22170471 168.24071289 36.22170471 167.54818726 37.1700592 C165.99293189 39.42762415 164.59468787 41.75808532 163.2046814 44.12025452 C163.97658813 44.1150177 164.74849487 44.10978088 165.54379272 44.10438538 C169.03491403 44.0836221 172.52602235 44.0705964 176.0171814 44.05775452 C177.83959351 44.04518616 177.83959351 44.04518616 179.69882202 44.03236389 C181.44389038 44.02752991 181.44389038 44.02752991 183.22421265 44.02259827 C184.29776001 44.01736145 185.37130737 44.01212463 186.47738647 44.00672913 C189.2046814 44.12025452 189.2046814 44.12025452 192.2046814 45.12025452 C193.0562439 47.10853577 193.0562439 47.10853577 193.2046814 50.12025452 C191.67832972 53.101385 189.62494781 55.66532169 187.5796814 58.30775452 C186.38264371 59.90639612 185.18604236 61.50536453 183.98983765 63.10462952 C183.36738159 63.92640686 182.74492554 64.7481842 182.10360718 65.59486389 C179.01325239 69.70474174 176.0187029 73.88281797 173.0171814 78.05775452 C172.18936157 79.20183777 172.18936157 79.20183777 171.34481812 80.36903381 C170.83064331 81.07971008 170.31646851 81.79038635 169.78671265 82.52259827 C169.33529907 83.14642395 168.8838855 83.77024963 168.41879272 84.41297913 C167.31768586 85.96134838 166.25859479 87.53938442 165.2046814 89.12025452 C178.0746814 89.61525452 178.0746814 89.61525452 191.2046814 90.12025452 C191.8646814 91.44025452 192.5246814 92.76025452 193.2046814 94.12025452 C190.94991102 98.90611516 187.99946717 102.85480706 184.7046814 106.99525452 C180.78023648 111.9972863 177.03903232 117.1001065 173.3921814 122.30775452 C167.63066069 130.53200287 161.76847187 138.67900186 155.8765564 146.81019592 C154.1495074 149.19648938 152.42654263 151.58568421 150.7046814 153.97572327 C150.12903442 154.77437805 149.55338745 155.57303284 148.96029663 156.39588928 C147.87075909 157.90773063 146.78169111 159.41991056 145.69320679 160.93251038 C142.25200657 165.70385724 138.75021865 170.42594114 135.2046814 175.12025452 C136.58660347 178.06126817 138.18502158 180.61699421 140.1031189 183.23744202 C140.66515015 184.00959045 141.2271814 184.78173889 141.8062439 185.57728577 C142.39147827 186.37521545 142.97671265 187.17314514 143.5796814 187.99525452 C145.28729228 190.33178459 146.99199476 192.66998072 148.68417358 195.01771545 C149.62415848 196.31751473 150.57572806 197.60912809 151.54550171 198.88685608 C152.6812439 200.44056702 152.6812439 200.44056702 154.2046814 203.12025452 C153.8746814 204.44025452 153.5446814 205.76025452 153.2046814 207.12025452 C147.9246814 207.12025452 142.6446814 207.12025452 137.2046814 207.12025452 C138.09671265 208.35002014 138.9887439 209.57978577 139.9078064 210.84681702 C141.09015697 212.47958686 142.27244536 214.11240174 143.4546814 215.74525452 C144.04120483 216.5534967 144.62772827 217.36173889 145.23202515 218.19447327 C146.89813322 220.49707206 148.55399255 222.80658408 150.2046814 225.12025452 C150.63845093 225.72063538 151.07222046 226.32101624 151.51913452 226.93959045 C153.38131866 229.5949271 154.2046814 230.7922135 154.2046814 234.12025452 C148.2646814 234.45025452 142.3246814 234.78025452 136.2046814 235.12025452 C137.6896814 237.20337952 139.1746814 239.28650452 140.7046814 241.43275452 C141.43727173 242.46045959 141.43727173 242.46045959 142.18466187 243.50892639 C145.68258846 248.40737679 149.2298633 253.26699286 152.8062439 258.10853577 C154.2046814 260.12025452 154.2046814 260.12025452 154.2046814 261.12025452 C112.9546814 261.12025452 71.7046814 261.12025452 29.2046814 261.12025452 C30.66773864 258.19414003 32.01214171 255.84112554 33.8843689 253.22181702 C34.40128296 252.49478577 34.91819702 251.76775452 35.45077515 251.01869202 C35.98831421 250.26845764 36.52585327 249.51822327 37.0796814 248.74525452 C38.14032332 247.25880744 39.20023316 245.77183768 40.2593689 244.28431702 C40.72842651 243.62898987 41.19748413 242.97366272 41.68075562 242.29847717 C43.56656535 239.60299584 45.37990339 236.85742152 47.2046814 234.12025452 C41.2646814 234.12025452 35.3246814 234.12025452 29.2046814 234.12025452 C30.32981236 227.36946871 30.32981236 227.36946871 33.3296814 223.41322327 C33.95358765 222.57984436 34.5774939 221.74646545 35.2203064 220.88783264 C35.87515015 220.03640686 36.5299939 219.18498108 37.2046814 218.30775452 C37.85952515 217.4369928 38.5143689 216.56623108 39.1890564 215.66908264 C43.90061394 209.42432198 43.90061394 209.42432198 45.2046814 208.12025452 C40.2546814 207.79025452 35.3046814 207.46025452 30.2046814 207.12025452 C29.2046814 202.12025452 29.2046814 202.12025452 30.31283569 199.91957092 C30.87913696 199.19431213 31.44543823 198.46905334 32.02890015 197.72181702 C32.64571655 196.91228577 33.26253296 196.10275452 33.89804077 195.26869202 C34.55610718 194.43595764 35.21417358 193.60322327 35.8921814 192.74525452 C40.06211595 187.35926437 43.99886562 182.14231859 47.2046814 176.12025452 C46.61042358 175.36744202 46.01616577 174.61462952 45.40390015 173.83900452 C40.19605164 167.18577316 35.26810898 160.40028516 30.51937866 153.41273499 C25.4514801 145.97253487 20.16330395 138.69688625 14.87069702 131.41566467 C13.20154793 129.11593727 11.53803353 126.81224838 9.8765564 124.50697327 C9.33007446 123.74908508 8.78359253 122.9911969 8.22055054 122.21034241 C7.13522338 120.70386762 6.05105675 119.196556 4.96810913 117.68836975 C2.33742248 114.03358718 -0.32230763 110.40895873 -3.05703735 106.83119202 C-3.82829956 105.81255066 -3.82829956 105.81255066 -4.61514282 104.77333069 C-5.58198635 103.50017772 -6.55833674 102.23416615 -7.54580688 100.97694397 C-9.51543714 98.37160316 -10.74284216 96.54179609 -11.15078735 93.26478577 C-10.7953186 91.12025452 -10.7953186 91.12025452 -9.7953186 90.12025452 C-7.79566878 90.03267449 -5.79295751 90.01328875 -3.79141235 90.02259827 C-1.96900024 90.02743225 -1.96900024 90.02743225 -0.10977173 90.03236389 C1.1696228 90.0407428 2.44901733 90.0491217 3.7671814 90.05775452 C5.05044312 90.06226624 6.33370483 90.06677795 7.65585327 90.07142639 C10.83884162 90.08325906 14.02173902 90.09974383 17.2046814 90.12025452 C13.24635083 84.09104449 9.14242679 78.19654171 4.8921814 72.37025452 C3.75756202 70.79900433 2.62345094 69.22738697 1.48983765 67.65541077 C-0.54606156 64.83624518 -2.60004131 62.0324256 -4.67422485 59.24134827 C-5.50679758 58.09721085 -6.33886574 56.95270601 -7.1703186 55.80775452 C-7.89992798 54.8216217 -8.62953735 53.83548889 -9.3812561 52.81947327 C-10.7953186 50.12025452 -10.7953186 50.12025452 -10.5843811 47.32728577 C-9.7953186 45.12025452 -9.7953186 45.12025452 -8.7953186 44.12025452 C-6.7244714 43.96182802 -4.64853831 43.86901029 -2.57266235 43.80384827 C-1.31260376 43.76195374 -0.05254517 43.7200592 1.24569702 43.67689514 C2.58618876 43.63707856 3.9266836 43.59736638 5.2671814 43.55775452 C6.61159662 43.51457409 7.95599799 43.47095996 9.30038452 43.42689514 C12.6017048 43.32040094 15.90310375 43.21838991 19.2046814 43.12025452 C18.55990845 42.29638245 17.9151355 41.47251038 17.25082397 40.62367249 C10.68832454 32.21837018 4.50925178 23.5767727 -1.58389282 14.82679749 C-2.56747035 13.44122575 -3.59855292 12.08946544 -4.64297485 10.74916077 C-5.7953186 9.12025452 -5.7953186 9.12025452 -5.7953186 7.12025452 C-8.7653186 6.62525452 -8.7653186 6.62525452 -11.7953186 6.12025452 C-11.7953186 5.46025452 -11.7953186 4.80025452 -11.7953186 4.12025452 C-11.1353186 4.12025452 -10.4753186 4.12025452 -9.7953186 4.12025452 C-9.7953186 3.13025452 -9.7953186 2.14025452 -9.7953186 1.12025452 C-6.6903941 -0.43220774 -3.40730134 -0.01291513 0 0 Z M-5.7953186 49.12025452 C-0.47767731 57.62167412 -0.47767731 57.62167412 5.3921814 65.74525452 C9.85124057 71.5905497 14.09185967 77.57424208 18.30697632 83.5973053 C18.79915649 84.29968323 19.29133667 85.00206116 19.7984314 85.72572327 C20.23864624 86.35631653 20.67886108 86.98690979 21.13241577 87.63661194 C22.12701243 89.09555431 22.12701243 89.09555431 23.2046814 90.12025452 C25.35026966 90.20801057 27.49872561 90.22720671 29.64608765 90.21791077 C30.95126343 90.21468811 32.25643921 90.21146545 33.60116577 90.20814514 C34.98983829 90.19978853 36.37851017 90.19132357 37.7671814 90.18275452 C39.15975795 90.17774118 40.55233621 90.17317798 41.94491577 90.16908264 C45.3648801 90.15724885 48.78475984 90.14076332 52.2046814 90.12025452 C51.04130987 86.98897424 49.85432363 84.36888298 47.8062439 81.72962952 C47.09540649 80.80090027 47.09540649 80.80090027 46.37020874 79.85340881 C45.86183472 79.1989679 45.35346069 78.54452698 44.8296814 77.87025452 C40.29175191 71.9308442 35.87714377 65.92362763 31.5796814 59.80775452 C31.07130737 59.08491272 30.56293335 58.36207092 30.03915405 57.61732483 C28.06511865 54.8022604 26.11202575 51.98127104 24.2046814 49.12025452 C21.09828585 48.70191674 21.09828585 48.70191674 17.4468689 48.82728577 C16.78381744 48.83153061 16.12076599 48.83577545 15.43762207 48.84014893 C13.31789698 48.8569548 11.19911952 48.89460751 9.0796814 48.93275452 C7.6434972 48.94779902 6.20729812 48.96148784 4.77108765 48.97377014 C1.24864376 49.00686362 -2.27324497 49.05865771 -5.7953186 49.12025452 Z M152.41098022 53.98182678 C150.58061009 56.83596895 148.95550925 59.73998006 147.44540405 62.77552795 C145.28801108 66.85258464 142.48878011 70.46972216 139.7671814 74.18275452 C138.80645442 75.54604299 137.84925804 76.9118283 136.89608765 78.28041077 C135.0745209 80.89028874 133.22449258 83.47665138 131.35702515 86.05384827 C129.10892947 88.63227242 129.10892947 88.63227242 129.2046814 90.12025452 C145.86077656 92.5141993 145.86077656 92.5141993 161.69198608 88.64369202 C165.7682537 84.65964765 168.27618583 79.77196958 170.80966187 74.71742249 C173.20144452 70.26453766 176.29348639 66.33567571 179.3296814 62.30775452 C180.39976976 60.84654783 181.46520401 59.38191639 182.5249939 57.91322327 C182.97117065 57.29987122 183.41734741 56.68651917 183.87704468 56.05458069 C185.42388988 53.80087444 186.81798966 51.47519144 188.2046814 49.12025452 C168.75111948 46.31081325 168.75111948 46.31081325 152.41098022 53.98182678 Z M-5.7953186 94.12025452 C-2.83971796 99.52822404 0.49687679 104.46865582 4.1421814 109.43275452 C5.30763942 111.03294688 6.47300132 112.63320926 7.63827515 114.23353577 C8.23108276 115.04516174 8.82389038 115.85678772 9.43466187 116.69300842 C12.20511173 120.49215498 14.95431757 124.30655611 17.7046814 128.12025452 C18.78790168 129.62033616 19.8712353 131.12033596 20.9546814 132.62025452 C30.7046814 146.12025452 40.4546814 159.62025452 50.2046814 173.12025452 C53.95173714 169.54017987 57.13377174 165.83691975 60.1421814 161.62025452 C60.56563843 161.06466858 60.98909546 160.50908264 61.42538452 159.93666077 C62.79553564 158.09917384 62.79553564 158.09917384 64.2046814 155.12025452 C63.44394596 151.53168185 61.64458484 149.15735219 59.3296814 146.37025452 C55.90371643 142.08779831 52.72440785 137.6725238 49.5796814 133.18275452 C46.35628323 128.58934833 43.12797039 124.00029703 39.85702515 119.44056702 C39.30595093 118.67204407 38.75487671 117.90352112 38.18710327 117.11170959 C37.07652746 115.57947217 35.95412098 114.05573841 34.81991577 112.54090881 C32.34910689 109.22688157 30.08303931 106.07369122 28.33358765 102.31947327 C26.23680643 98.34539573 25.07397549 96.48256039 21.2046814 94.12025452 C12.29794125 92.67685267 3.15558595 93.39048494 -5.7953186 94.12025452 Z M27.2046814 94.12025452 C28.36805292 97.25153479 29.55503917 99.87162606 31.6031189 102.51087952 C32.07620483 103.12890442 32.54929077 103.74692932 33.03671265 104.38368225 C33.80048218 105.36703552 33.80048218 105.36703552 34.5796814 106.37025452 C38.89730096 112.02667592 43.11708574 117.73272781 47.2046814 123.55775452 C47.69162476 124.25102844 48.17856812 124.94430237 48.68026733 125.65858459 C50.19004403 127.81133161 51.69745937 129.96571828 53.2046814 132.12025452 C55.41004598 135.26818233 57.6190962 138.41349147 59.8296814 141.55775452 C60.33886108 142.28599426 60.84804077 143.01423401 61.37265015 143.76454163 C61.84573608 144.43751282 62.31882202 145.11048401 62.8062439 145.80384827 C63.43006958 146.69414734 63.43006958 146.69414734 64.0664978 147.60243225 C65.2639116 149.27381658 65.2639116 149.27381658 67.2046814 151.12025452 C69.55357035 148.0484932 71.88095395 144.96108118 74.2046814 141.87025452 C74.87241577 140.9975592 75.54015015 140.12486389 76.2281189 139.22572327 C76.85975952 138.38138733 77.49140015 137.53705139 78.1421814 136.66712952 C78.72870483 135.89208069 79.31522827 135.11703186 79.91952515 134.3184967 C81.54115165 131.96911832 81.54115165 131.96911832 81.2046814 128.12025452 C79.44030815 125.41730952 79.44030815 125.41730952 77.0171814 122.55775452 C71.81198513 116.07521535 67.13492697 109.289793 62.49691772 102.39344788 C61.70257324 101.21601013 61.70257324 101.21601013 60.8921814 100.01478577 C60.42167358 99.312005 59.95116577 98.60922424 59.46640015 97.88514709 C58.18620692 95.9924474 58.18620692 95.9924474 56.2046814 94.12025452 C53.19204415 93.84134305 53.19204415 93.84134305 49.6656189 93.92494202 C48.36366577 93.93138733 47.06171265 93.93783264 45.7203064 93.94447327 C44.34009544 93.96118522 42.95988711 93.97811513 41.5796814 93.99525452 C40.19166688 94.00528446 38.80364551 94.01441029 37.4156189 94.02259827 C34.01180114 94.04623589 30.60832633 94.07918585 27.2046814 94.12025452 Z M119.40951538 99.34046936 C117.58964589 102.37481023 115.97977119 105.46393859 114.47177124 108.66419983 C112.27220398 112.92771556 109.28458067 116.62110757 106.3921814 120.43275452 C105.35030064 121.81383405 104.32165671 123.20505771 103.31015015 124.60853577 C102.87855591 125.19159485 102.44696167 125.77465393 102.00228882 126.37538147 C101.03586389 128.10113127 101.03586389 128.10113127 101.40292358 130.082901 C102.31810044 132.4084646 103.46719833 134.20080436 104.92733765 136.22962952 C105.46552124 136.98373108 106.00370483 137.73783264 106.55819702 138.51478577 C107.12216187 139.29209045 107.68612671 140.06939514 108.2671814 140.87025452 C108.83501343 141.66302795 109.40284546 142.45580139 109.98788452 143.27259827 C111.38807472 145.22580477 112.79379233 147.17476953 114.2046814 149.12025452 C117.57027454 147.72100939 119.10181764 146.25918281 121.0874939 143.22572327 C121.60980591 142.44157043 122.13211792 141.6574176 122.67025757 140.84950256 C123.21786743 140.01072571 123.76547729 139.17194885 124.3296814 138.30775452 C128.19839417 132.51147257 132.08281009 126.78648988 136.3921814 121.30775452 C139.88262671 116.84932274 143.27778468 112.34395391 146.5796814 107.74525452 C147.18719238 106.90643738 147.18719238 106.90643738 147.80697632 106.05067444 C150.55371498 102.20111763 152.91521078 98.249665 155.2046814 94.12025452 C135.59580742 91.19822371 135.59580742 91.19822371 119.40951538 99.34046936 Z M155.39047241 98.21253967 C153.88733962 100.73863303 152.56020103 103.31299536 151.30966187 105.97279358 C149.28508255 109.90743777 146.53843586 113.33780713 143.8921814 116.87025452 C142.78778646 118.39163993 141.68624879 119.91510333 140.5874939 121.44056702 C139.75653198 122.5896051 139.75653198 122.5896051 138.90878296 123.76185608 C137.16949042 126.16895721 135.43283103 128.57793815 133.6968689 130.98744202 C133.12234985 131.78440491 132.54783081 132.5813678 131.9559021 133.40248108 C130.86792802 134.91183475 129.7804843 136.42157092 128.69369507 137.93177795 C128.19329712 138.62561584 127.69289917 139.31945374 127.17733765 140.03431702 C126.6953894 140.71010803 126.21344116 141.38589905 125.71688843 142.08216858 C124.66263176 143.50304922 123.56001756 144.88876306 122.42294312 146.24427795 C120.8489013 148.15169352 119.42258221 149.96799313 118.2046814 152.12025452 C118.29269041 154.78781396 118.29269041 154.78781396 120.2046814 157.12025452 C120.80844604 158.00511536 120.80844604 158.00511536 121.42440796 158.90785217 C122.84944715 160.95175114 124.32957709 162.943403 125.8296814 164.93275452 C126.3453064 165.62562561 126.8609314 166.3184967 127.3921814 167.03236389 C128.65811066 168.73199114 129.93073405 170.42662886 131.2046814 172.12025452 C134.48435322 169.04137892 137.08212659 165.67149951 139.6421814 161.99525452 C140.52964692 160.73705015 141.41769679 159.4792578 142.3062439 158.22181702 C143.01055542 157.22263245 143.01055542 157.22263245 143.72909546 156.20326233 C146.29995549 152.57411312 148.90969621 148.9731331 151.5171814 145.37025452 C152.62921857 143.83253605 153.74119719 142.29477524 154.8531189 140.75697327 C155.40838257 139.98917542 155.96364624 139.22137756 156.53573608 138.43031311 C158.16986439 136.16844622 159.80105269 133.90449144 161.4312439 131.63978577 C162.50150461 130.15407138 163.57181701 128.66839422 164.6421814 127.18275452 C165.1676355 126.45258118 165.6930896 125.72240784 166.23446655 124.97010803 C169.14537094 120.93551866 172.08636053 116.92616692 175.0640564 112.94056702 C176.02227295 111.65460632 176.02227295 111.65460632 176.99984741 110.34266663 C178.23250272 108.69143968 179.46975045 107.04362795 180.71224976 105.39979553 C181.5496167 104.27722351 181.5496167 104.27722351 182.40390015 103.13197327 C182.89720825 102.47672668 183.39051636 101.8214801 183.89877319 101.14637756 C185.35080144 98.89354854 186.2836033 96.6316166 187.2046814 94.12025452 C169.89255477 91.45670382 169.89255477 91.45670382 155.39047241 98.21253967 Z M98.2046814 132.12025452 C95.8946814 135.09025452 93.5846814 138.06025452 91.2046814 141.12025452 C88.53801473 138.45358785 85.87134806 135.78692118 83.2046814 133.12025452 C81.61886162 135.16003034 80.03599232 137.20198759 78.4546814 139.24525452 C78.0112439 139.81502014 77.5678064 140.38478577 77.1109314 140.97181702 C75.79341101 142.6768434 74.49609523 144.3953938 73.2046814 146.12025452 C72.02132202 147.69419983 72.02132202 147.69419983 70.8140564 149.29994202 C69.0176996 151.88021267 69.0176996 151.88021267 69.26327515 154.19837952 C70.42529003 156.57062567 71.76484158 158.69665648 73.2671814 160.87025452 C73.81503296 161.66947327 74.36288452 162.46869202 74.92733765 163.29212952 C75.34886108 163.89541077 75.77038452 164.49869202 76.2046814 165.12025452 C80.42784342 161.24902266 83.37607644 156.663033 86.4937439 151.90150452 C87.7671814 150.04212952 87.7671814 150.04212952 90.2046814 147.12025452 C91.5246814 147.12025452 92.8446814 147.12025452 94.2046814 147.12025452 C94.57206421 148.1779303 94.57206421 148.1779303 94.9468689 149.25697327 C96.37935668 152.51788489 98.19990009 155.08159567 100.3296814 157.93275452 C101.05413452 158.90857483 101.77858765 159.88439514 102.5249939 160.88978577 C103.07929077 161.62584045 103.63358765 162.36189514 104.2046814 163.12025452 C107.89114281 161.66169804 109.36612111 159.81796407 111.4546814 156.49525452 C111.97546265 155.67798889 112.4962439 154.86072327 113.0328064 154.01869202 C113.41952515 153.39220764 113.8062439 152.76572327 114.2046814 152.12025452 C111.91965279 148.9695499 109.6255658 145.82555518 107.3296814 142.68275452 C106.35321655 141.33600647 106.35321655 141.33600647 105.35702515 139.96205139 C104.73182983 139.10804749 104.10663452 138.25404358 103.4624939 137.37416077 C102.88644409 136.58340149 102.31039429 135.79264221 101.71688843 134.97792053 C100.32648352 133.00977002 100.32648352 133.00977002 98.2046814 132.12025452 Z M90.2046814 150.12025452 C88.06929953 152.51574429 86.3339591 155.22849977 84.5171814 157.87025452 C83.99317749 158.59986389 83.46917358 159.32947327 82.92929077 160.08119202 C82.43880249 160.79017639 81.94831421 161.49916077 81.44296265 162.22962952 C80.98961548 162.87899475 80.53626831 163.52835999 80.06918335 164.19740295 C79.01803818 166.09046854 79.01803818 166.09046854 79.46298218 168.20228577 C80.50725573 170.90268505 82.07288382 173.02904333 83.7671814 175.37025452 C84.40784546 176.26228577 85.04850952 177.15431702 85.70858765 178.07337952 C86.20229858 178.74884827 86.69600952 179.42431702 87.2046814 180.12025452 C88.74634781 178.74539919 88.74634781 178.74539919 90.2046814 177.12025452 C90.2046814 176.46025452 90.2046814 175.80025452 90.2046814 175.12025452 C92.6796814 177.10025452 92.6796814 177.10025452 95.2046814 179.12025452 C96.601694 177.24058305 97.97170863 175.34082134 99.3296814 173.43275452 C100.09538452 172.37701233 100.86108765 171.32127014 101.6499939 170.23353577 C103.50278842 167.31049193 103.50278842 167.31049193 102.7281189 164.62025452 C100.86539097 161.56347023 98.8698809 158.65433469 96.7046814 155.80775452 C96.30120483 155.25796936 95.89772827 154.7081842 95.48202515 154.14173889 C94.44199448 152.76018001 93.32834685 151.43469154 92.2046814 150.12025452 C91.5446814 150.12025452 90.8846814 150.12025452 90.2046814 150.12025452 Z M115.2046814 156.12025452 C113.30504866 158.18063981 113.30504866 158.18063981 111.4546814 160.80775452 C110.79983765 161.6778717 110.1449939 162.54798889 109.4703064 163.44447327 C107.94258563 165.99502572 107.94258563 165.99502572 108.6499939 168.46400452 C110.80412653 172.14443214 113.26395058 175.53023078 115.8296814 178.93275452 C116.3453064 179.62562561 116.8609314 180.3184967 117.3921814 181.03236389 C118.65811066 182.73199114 119.93073405 184.42662886 121.2046814 186.12025452 C123.91279982 183.55101396 126.03495987 181.0697904 127.9546814 177.87025452 C128.38265015 177.16384827 128.8106189 176.45744202 129.2515564 175.72962952 C129.56608765 175.19853577 129.8806189 174.66744202 130.2046814 174.12025452 C129.51761108 173.23982483 128.83054077 172.35939514 128.12265015 171.45228577 C127.21235086 170.27921967 126.30220259 169.10603636 125.3921814 167.93275452 C124.94036499 167.35460999 124.48854858 166.77646545 124.02304077 166.18080139 C122.00271249 163.57059623 120.16750323 161.0562397 118.50546265 158.19447327 C117.86157593 157.16773499 117.86157593 157.16773499 117.2046814 156.12025452 C116.5446814 156.12025452 115.8846814 156.12025452 115.2046814 156.12025452 Z M65.2046814 157.12025452 C62.93206731 159.70816144 61.0474812 162.60889332 59.0796814 165.43275452 C58.51636108 166.21843811 57.95304077 167.0041217 57.37265015 167.81361389 C56.84026733 168.57093811 56.30788452 169.32826233 55.7593689 170.10853577 C55.26936401 170.80503235 54.77935913 171.50152893 54.27450562 172.21913147 C52.95947373 174.19242132 52.95947373 174.19242132 53.2046814 177.12025452 C54.74322094 179.68251295 54.74322094 179.68251295 56.7046814 182.30775452 C57.67921265 183.65933655 57.67921265 183.65933655 58.6734314 185.03822327 C59.1787439 185.72529358 59.6840564 186.41236389 60.2046814 187.12025452 C63.76658916 183.7673789 66.68051048 180.10200409 69.5796814 176.18275452 C70.05534546 175.57496155 70.53100952 174.96716858 71.02108765 174.34095764 C72.55762067 172.33870006 72.55762067 172.33870006 74.2046814 169.12025452 C73.80401615 166.36332193 73.80401615 166.36332193 72.2046814 164.12025452 C71.60140015 163.12058655 71.60140015 163.12058655 70.9859314 162.10072327 C70.35171265 161.21320374 70.35171265 161.21320374 69.7046814 160.30775452 C69.07046265 159.40089905 69.07046265 159.40089905 68.4234314 158.47572327 C68.0212439 158.02841858 67.6190564 157.58111389 67.2046814 157.12025452 C66.5446814 157.12025452 65.8846814 157.12025452 65.2046814 157.12025452 Z M105.2046814 170.12025452 C103.76393425 171.90238352 102.39957491 173.74685727 101.0796814 175.62025452 C100.35522827 176.64119202 99.63077515 177.66212952 98.8843689 178.71400452 C98.33007202 179.50806702 97.77577515 180.30212952 97.2046814 181.12025452 C98.54118396 183.92418235 100.0367845 186.45956597 101.8062439 189.01087952 C102.29608765 189.71986389 102.7859314 190.42884827 103.2906189 191.15931702 C103.79850952 191.88892639 104.30640015 192.61853577 104.8296814 193.37025452 C105.3453064 194.11533264 105.8609314 194.86041077 106.3921814 195.62806702 C107.66072226 197.46040382 108.93161718 199.29105891 110.2046814 201.12025452 C114.40708151 197.40274673 117.20250819 192.80364472 120.2046814 188.12025452 C118.09028985 185.11264586 115.9614695 182.11555172 113.8296814 179.12025452 C113.22640015 178.26173889 112.6231189 177.40322327 112.0015564 176.51869202 C111.42147827 175.70658264 110.84140015 174.89447327 110.2437439 174.05775452 C109.70958862 173.30365295 109.17543335 172.54955139 108.62509155 171.77259827 C108.1563562 171.22732483 107.68762085 170.68205139 107.2046814 170.12025452 C106.5446814 170.12025452 105.8846814 170.12025452 105.2046814 170.12025452 Z M75.2046814 171.12025452 C73.6899339 172.83018116 73.6899339 172.83018116 72.1656189 175.05775452 C71.58554077 175.86986389 71.00546265 176.68197327 70.4078064 177.51869202 C69.50288452 178.80646545 69.50288452 178.80646545 68.5796814 180.12025452 C67.96866577 180.97877014 67.35765015 181.83728577 66.7281189 182.72181702 C65.21437156 184.85052421 63.7069121 186.98341186 62.2046814 189.12025452 C65.20836848 194.59147496 65.20836848 194.59147496 68.9546814 199.55775452 C69.6971814 200.40337952 70.4396814 201.24900452 71.2046814 202.12025452 C74.34451349 198.22480862 77.40992868 194.27743938 80.4546814 190.30775452 C80.91358765 189.71027405 81.3724939 189.11279358 81.8453064 188.49720764 C82.96554366 187.03856537 84.08517532 185.57945804 85.2046814 184.12025452 C83.7406891 181.05150143 82.06458503 178.21590708 80.2046814 175.37025452 C79.6890564 174.57103577 79.1734314 173.77181702 78.6421814 172.94837952 C78.1678064 172.34509827 77.6934314 171.74181702 77.2046814 171.12025452 C76.5446814 171.12025452 75.8846814 171.12025452 75.2046814 171.12025452 Z M132.2046814 178.12025452 C129.5646814 181.75025452 126.9246814 185.38025452 124.2046814 189.12025452 C124.8646814 190.44025452 125.5246814 191.76025452 126.2046814 193.12025452 C126.87177124 194.50470764 126.87177124 194.50470764 127.55233765 195.91712952 C129.5228511 199.31054221 131.14458629 201.63261186 134.2046814 204.12025452 C139.75947991 205.49199039 145.58466778 204.75250605 151.2046814 204.12025452 C147.48541351 198.32949566 143.51873745 192.7343256 139.4546814 187.18275452 C138.97088013 186.52009583 138.48707886 185.85743713 137.98861694 185.17469788 C136.16062488 182.68943585 134.38965384 180.30522696 132.2046814 178.12025452 Z M49.2046814 179.12025452 C47.62251189 181.22375191 46.09100477 183.34154964 44.5796814 185.49525452 C44.13253784 186.12778137 43.68539429 186.76030823 43.22470093 187.41200256 C42.31550964 188.69929112 41.40779364 189.98762292 40.5015564 191.2769928 C39.33476454 192.93536601 38.16079292 194.58868214 36.9859314 196.24134827 C33.86404723 199.89038946 33.86404723 199.89038946 32.2046814 204.12025452 C42.105172 205.48331228 42.105172 205.48331228 50.9781189 202.03431702 C53.9252033 198.29842191 56.14599964 194.39751563 58.2046814 190.12025452 C56.89612587 188.28410371 55.58273677 186.45139662 54.2671814 184.62025452 C53.53628296 183.59931702 52.80538452 182.57837952 52.05233765 181.52650452 C51.44261108 180.73244202 50.83288452 179.93837952 50.2046814 179.12025452 C49.8746814 179.12025452 49.5446814 179.12025452 49.2046814 179.12025452 Z M122.2046814 192.12025452 C120.86850242 193.93065772 119.53580756 195.74363292 118.2046814 197.55775452 C117.0909314 199.07175842 117.0909314 199.07175842 115.9546814 200.61634827 C114.10920449 202.74772324 114.10920449 202.74772324 114.2046814 204.12025452 C119.8146814 204.12025452 125.4246814 204.12025452 131.2046814 204.12025452 C130.2765564 202.69712952 129.3484314 201.27400452 128.3921814 199.80775452 C127.60907593 198.6069928 127.60907593 198.6069928 126.81015015 197.38197327 C125.40078291 195.39651431 123.98371483 193.77106932 122.2046814 192.12025452 Z M59.2046814 193.12025452 C57.97993609 194.73856306 56.79958809 196.39062124 55.6421814 198.05775452 C55.00151733 198.97427795 54.36085327 199.89080139 53.70077515 200.83509827 C52.1133897 202.80447098 52.1133897 202.80447098 52.2046814 204.12025452 C57.1546814 204.12025452 62.1046814 204.12025452 67.2046814 204.12025452 C65.7755932 201.26207812 64.47219966 198.92681734 62.6421814 196.37025452 C62.20776733 195.75666077 61.77335327 195.14306702 61.32577515 194.51087952 C60.95581421 194.05197327 60.58585327 193.59306702 60.2046814 193.12025452 C59.8746814 193.12025452 59.5446814 193.12025452 59.2046814 193.12025452 Z M36.54476929 223.92201233 C35.2046814 226.12025452 35.2046814 226.12025452 33.53451538 228.2794342 C32.00948386 230.01196968 32.00948386 230.01196968 32.2046814 232.12025452 C38.22063059 233.21406346 44.30681674 234.16983251 50.2046814 232.12025452 C56.01716347 227.4628434 59.63618987 220.54160138 63.2046814 214.12025452 C63.98762375 212.7564494 64.77137852 211.3931101 65.5562439 210.03041077 C66.10022827 209.0700592 66.64421265 208.10970764 67.2046814 207.12025452 C50.56530254 203.89425249 44.82857052 209.84993608 36.54476929 223.92201233 Z M115.2046814 207.12025452 C116.48427439 209.12574689 117.78613288 211.09825052 119.1421814 213.05384827 C120.74275531 215.43348941 122.19669027 217.80935706 123.6421814 220.28041077 C128.19060306 228.11446246 128.19060306 228.11446246 135.51327515 232.83851624 C140.82985832 233.50308913 145.9375211 232.96300016 151.2046814 232.12025452 C146.02823237 223.56711523 140.33352676 214.24909988 133.2046814 207.12025452 C131.86200727 207.03393577 130.51493818 207.01318978 129.16952515 207.02259827 C128.36063843 207.02582092 127.55175171 207.02904358 126.71835327 207.03236389 C125.86821655 207.0407428 125.01807983 207.0491217 124.1421814 207.05775452 C123.28817749 207.06226624 122.43417358 207.06677795 121.55429077 207.07142639 C119.43772476 207.08325078 117.32119455 207.10118683 115.2046814 207.12025452 Z"/>
<path transform="translate(249,294)" fill="#FAFAFA" d="M0 0 C4.26479462 1.52314093 5.64343357 4.25976154 8 8 C8.95760982 9.312554 9.92850356 10.61548541 10.91015625 11.91015625 C11.68262695 12.93012695 11.68262695 12.93012695 12.47070312 13.97070312 C13.53521609 15.36959071 14.60032411 16.76802566 15.66601562 18.16601562 C16.17970703 18.84470703 16.69339844 19.52339844 17.22265625 20.22265625 C17.71934814 20.87097412 18.21604004 21.51929199 18.7277832 22.18725586 C20 24 20 24 21.296875 26.9453125 C23.37377437 29.45092963 24.08014945 29.39223152 27.23046875 29.70703125 C28.88210794 29.76672905 30.53482232 29.80099644 32.1875 29.8125 C33.03248047 29.83763672 33.87746094 29.86277344 34.74804688 29.88867188 C36.8315305 29.94752734 38.91581627 29.97662995 41 30 C41 30.33 41 30.66 41 31 C35.72 31.33 30.44 31.66 25 32 C26.87053652 34.28621131 28.7432783 36.57064232 30.625 38.84765625 C32.37108471 41.16523908 33.74268392 43.23680608 35.125 45.74609375 C38.85936255 52.63372058 38.85936255 52.63372058 45.20507812 56.71728516 C50.48944292 57.57647117 55.67895581 57.40574411 61 57 C61 57.66 61 58.32 61 59 C56.05 59.33 51.1 59.66 46 60 C47.49935566 62.10462834 48.99938936 64.20876662 50.5 66.3125 C50.94907715 66.94244873 51.3981543 67.57239746 51.86083984 68.22143555 C55.39809069 73.17596241 58.98448677 78.09164711 62.6015625 82.98828125 C64 85 64 85 64 86 C22.75 86 -18.5 86 -61 86 C-59.53694276 83.07388552 -58.19253969 80.72087103 -56.3203125 78.1015625 C-55.80339844 77.37453125 -55.28648437 76.6475 -54.75390625 75.8984375 C-54.21636719 75.14820313 -53.67882812 74.39796875 -53.125 73.625 C-52.06435807 72.13855292 -51.00444824 70.65158316 -49.9453125 69.1640625 C-49.47625488 68.50873535 -49.00719727 67.8534082 -48.52392578 67.17822266 C-46.63811604 64.48274132 -44.824778 61.73716701 -43 59 C-48.94 59 -54.88 59 -61 59 C-61 58.01 -61 57.02 -61 56 C-54.07 56.33 -47.14 56.66 -40 57 C-39.34 55.68 -38.68 54.36 -38 53 C-36.12532966 50.10876779 -34.115932 47.31213177 -32.125 44.5 C-31.59519531 43.74074219 -31.06539062 42.98148437 -30.51953125 42.19921875 C-27.38328272 37.75555147 -24.24662251 33.88426404 -20.0625 30.375 C-18.04532034 28.05218706 -17.04216092 26.1408294 -15.75 23.375 C-13.40669611 18.45695479 -10.41808092 14.57239988 -6.9375 10.40625 C-4.2837959 7.11052072 -2.15522926 3.63694937 0 0 Z"/>
<path transform="translate(249,238)" fill="#ABADAD" d="M0 0 C2.79537101 0.33716098 3.82397555 0.80117238 5.71875 2.94140625 C6.60046875 4.23884766 6.60046875 4.23884766 7.5 5.5625 C8.52673828 7.03783203 8.52673828 7.03783203 9.57421875 8.54296875 C10.14342041 9.3635376 10.14342041 9.3635376 10.72412109 10.20068359 C13.66863129 14.35319798 16.79231185 18.37761529 19.875 22.42797852 C27 31.86135696 27 31.86135696 27 35 C27.66 35 28.32 35 29 35 C30.20166016 36.38598633 30.20166016 36.38598633 31.5390625 38.33203125 C32.03269287 39.04222412 32.52632324 39.75241699 33.03491211 40.48413086 C33.55964111 41.25249268 34.08437012 42.02085449 34.625 42.8125 C35.7220801 44.39362909 36.81973572 45.974359 37.91796875 47.5546875 C38.71726807 48.71049316 38.71726807 48.71049316 39.53271484 49.88964844 C41.29989853 52.43133493 43.1090725 54.93956265 44.9375 57.4375 C48.59955028 62.44668929 52.24036269 67.47090149 55.875 72.5 C56.73339478 73.68613892 56.73339478 73.68613892 57.60913086 74.89624023 C58.4174939 76.01494507 58.4174939 76.01494507 59.2421875 77.15625 C59.7254248 77.82462891 60.20866211 78.49300781 60.70654297 79.18164062 C61.83421767 80.76694096 62.92085114 82.38127671 64 84 C63.505 85.98 63.505 85.98 63 88 C57.72 88 52.44 88 47 88 C47.89203125 89.22976563 48.7840625 90.45953125 49.703125 91.7265625 C50.88547558 93.35933234 52.06776396 94.99214722 53.25 96.625 C53.83652344 97.43324219 54.42304688 98.24148438 55.02734375 99.07421875 C56.69345182 101.37681755 58.34931115 103.68632957 60 106 C60.43376953 106.60038086 60.86753906 107.20076172 61.31445312 107.81933594 C63.17663726 110.47467258 64 111.67195899 64 115 C63.01 115 62.02 115 61 115 C60.47792969 114.03835938 59.95585937 113.07671875 59.41796875 112.0859375 C56.71628906 107.35889106 53.52442123 103.01426999 50.3125 98.625 C49.71888672 97.80644531 49.12527344 96.98789062 48.51367188 96.14453125 C45.93728326 92.42259503 45.93728326 92.42259503 43 89 C41.63103105 88.91598789 40.2582604 88.89178788 38.88671875 88.89453125 C38.05076172 88.87970703 37.21480469 88.86488281 36.35351562 88.84960938 C34.58805396 88.82503518 32.82221444 88.81956618 31.05664062 88.83398438 C30.21681641 88.81271484 29.37699219 88.79144531 28.51171875 88.76953125 C27.74303467 88.76542236 26.97435059 88.76131348 26.18237305 88.75708008 C24 88 24 88 20 82 C22.97 78.04 25.94 74.08 29 70 C24.41135729 62.44616797 24.41135729 62.44616797 19.0625 55.4375 C17 53 17 53 17 51 C16.34 51 15.68 51 15 51 C14.79375 51.680625 14.5875 52.36125 14.375 53.0625 C12.54591134 56.97009851 9.89720966 59.83857939 7 63 C6.34 62.67 5.68 62.34 5 62 C5.6807438 56.9784094 7.8639698 54.1969868 10.91796875 50.28125 C12.2748599 48.03464611 12.2748599 48.03464611 11.42578125 45.578125 C9.79812364 42.63496329 7.99241127 39.96026533 6 37.25 C5.29875 36.28578125 4.5975 35.3215625 3.875 34.328125 C2.21185636 31.93255685 2.21185636 31.93255685 0 31 C-0.24363281 31.53625 -0.48726562 32.0725 -0.73828125 32.625 C-2.90623087 36.70584635 -5.73657877 40.36823646 -8.41796875 44.125 C-10.18819301 46.76435643 -10.18819301 46.76435643 -9.93359375 49.12890625 C-8.82707708 51.34656936 -7.48124272 53.05109867 -5.875 54.9375 C-2.98416156 58.61987753 -2.98416156 58.61987753 -3.125 62 C-3.41375 62.66 -3.7025 63.32 -4 64 C-7.25516428 60.83525695 -10.32008793 57.67247209 -13 54 C-13 53.34 -13 52.68 -13 52 C-16.66038898 55.38671504 -19.40850722 59.18600451 -22.25 63.25 C-22.70890625 63.8996875 -23.1678125 64.549375 -23.640625 65.21875 C-24.76389558 66.81004999 -25.88243056 68.40469095 -27 70 C-26.38640625 71.09441406 -25.7728125 72.18882812 -25.140625 73.31640625 C-24.79547852 73.93201416 -24.45033203 74.54762207 -24.09472656 75.18188477 C-22.61395587 77.64113975 -20.85451257 79.81432447 -19 82 C-17.68 80.68 -16.36 79.36 -15 78 C-15.6163897 82.00653305 -17.58572726 84.80463901 -20 88 C-23 89 -23 89 -26.87890625 88.60546875 C-35.14471508 87.54473216 -35.14471508 87.54473216 -42.70800781 90.20849609 C-45.7521356 93.4557699 -47.88513374 97.2466429 -49.97705078 101.15234375 C-51.48550238 103.87691696 -53.29794793 106.35692428 -55.125 108.875 C-56.08405432 110.24949721 -57.04270136 111.62427943 -58 113 C-58.99 112.34 -59.98 111.68 -61 111 C-59.08598147 108.26896745 -57.16831199 105.54051809 -55.25 102.8125 C-54.71117187 102.04357422 -54.17234375 101.27464844 -53.6171875 100.48242188 C-53.08867187 99.73154297 -52.56015625 98.98066406 -52.015625 98.20703125 C-51.53383789 97.5210083 -51.05205078 96.83498535 -50.55566406 96.12817383 C-48.77789788 93.69616067 -46.88189221 91.35236526 -45 89 C-49.95 88.67 -54.9 88.34 -60 88 C-61 83 -61 83 -59.8918457 80.78344727 C-59.32554443 80.05182373 -58.75924316 79.3202002 -58.17578125 78.56640625 C-57.55896484 77.75236328 -56.94214844 76.93832031 -56.30664062 76.09960938 C-55.31954102 74.84374023 -55.31954102 74.84374023 -54.3125 73.5625 C-53.03671852 71.89793345 -51.76195432 70.23258664 -50.48828125 68.56640625 C-49.57876709 67.39295654 -49.57876709 67.39295654 -48.65087891 66.19580078 C-47.23023017 64.30622452 -45.93070863 62.39870327 -44.66796875 60.40234375 C-44.11753906 59.60957031 -43.56710938 58.81679688 -43 58 C-42.34 58 -41.68 58 -41 58 C-40.690625 57.03513672 -40.690625 57.03513672 -40.375 56.05078125 C-38.42632991 51.72716949 -35.74091893 48.04353336 -33 44.1875 C-32.4534375 43.39923828 -31.906875 42.61097656 -31.34375 41.79882812 C-30.8178125 41.05439453 -30.291875 40.30996094 -29.75 39.54296875 C-29.27046875 38.86258545 -28.7909375 38.18220215 -28.296875 37.48120117 C-27.65492188 36.74800659 -27.65492188 36.74800659 -27 36 C-26.34 36 -25.68 36 -25 36 C-24.79375 35.3503125 -24.5875 34.700625 -24.375 34.03125 C-22.44809812 29.78330722 -19.75944685 26.24527354 -17 22.5 C-16.42419189 21.71061035 -15.84838379 20.9212207 -15.25512695 20.10791016 C-10.2826608 13.31809248 -5.1868931 6.62704626 0 0 Z M8 13 C5.69 15.97 3.38 18.94 1 22 C-1.66666667 19.33333333 -4.33333333 16.66666667 -7 14 C-8.58581978 16.03977583 -10.16868908 18.08173308 -11.75 20.125 C-12.1934375 20.69476563 -12.636875 21.26453125 -13.09375 21.8515625 C-14.41127039 23.55658889 -15.70858617 25.27513928 -17 27 C-18.18335938 28.57394531 -18.18335938 28.57394531 -19.390625 30.1796875 C-21.18698179 32.75995815 -21.18698179 32.75995815 -20.94140625 35.078125 C-19.77939136 37.45037116 -18.43983982 39.57640196 -16.9375 41.75 C-16.38964844 42.54921875 -15.84179688 43.3484375 -15.27734375 44.171875 C-14.85582031 44.77515625 -14.43429688 45.3784375 -14 46 C-9.77683798 42.12876815 -6.82860496 37.54277849 -3.7109375 32.78125 C-2.4375 30.921875 -2.4375 30.921875 0 28 C1.32 28 2.64 28 4 28 C4.36738281 29.05767578 4.36738281 29.05767578 4.7421875 30.13671875 C6.17467528 33.39763037 7.99521869 35.96134115 10.125 38.8125 C10.84945312 39.78832031 11.57390625 40.76414062 12.3203125 41.76953125 C12.87460937 42.50558594 13.42890625 43.24164063 14 44 C17.68646141 42.54144353 19.16143971 40.69770955 21.25 37.375 C21.77078125 36.55773437 22.2915625 35.74046875 22.828125 34.8984375 C23.21484375 34.27195312 23.6015625 33.64546875 24 33 C21.71497139 29.84929538 19.4208844 26.70530066 17.125 23.5625 C16.14853516 22.21575195 16.14853516 22.21575195 15.15234375 20.84179688 C14.52714844 19.98779297 13.90195312 19.13378906 13.2578125 18.25390625 C12.6817627 17.46314697 12.10571289 16.6723877 11.51220703 15.85766602 C10.12180213 13.8895155 10.12180213 13.8895155 8 13 Z M25 37 C23.10036726 39.06038529 23.10036726 39.06038529 21.25 41.6875 C20.59515625 42.55761719 19.9403125 43.42773438 19.265625 44.32421875 C17.73790424 46.8747712 17.73790424 46.8747712 18.4453125 49.34375 C20.59944514 53.02417762 23.05926918 56.40997626 25.625 59.8125 C26.140625 60.50537109 26.65625 61.19824219 27.1875 61.91210938 C28.45342926 63.61173663 29.72605265 65.30637435 31 67 C33.70811843 64.43075944 35.83027847 61.94953588 37.75 58.75 C38.17796875 58.04359375 38.6059375 57.3371875 39.046875 56.609375 C39.36140625 56.07828125 39.6759375 55.5471875 40 55 C39.31292969 54.11957031 38.62585938 53.23914063 37.91796875 52.33203125 C37.00766946 51.15896515 36.0975212 49.98578185 35.1875 48.8125 C34.73568359 48.23435547 34.28386719 47.65621094 33.81835938 47.06054688 C31.79803109 44.45034172 29.96282183 41.93598518 28.30078125 39.07421875 C27.65689453 38.04748047 27.65689453 38.04748047 27 37 C26.34 37 25.68 37 25 37 Z M-25 38 C-27.27261408 40.58790692 -29.1572002 43.4886388 -31.125 46.3125 C-31.68832031 47.09818359 -32.25164062 47.88386719 -32.83203125 48.69335938 C-33.36441406 49.45068359 -33.89679688 50.20800781 -34.4453125 50.98828125 C-34.93531738 51.68477783 -35.42532227 52.38127441 -35.93017578 53.09887695 C-37.24520766 55.0721668 -37.24520766 55.0721668 -37 58 C-35.46146046 60.56225843 -35.46146046 60.56225843 -33.5 63.1875 C-32.52546875 64.53908203 -32.52546875 64.53908203 -31.53125 65.91796875 C-31.0259375 66.60503906 -30.520625 67.29210937 -30 68 C-26.43809224 64.64712438 -23.52417092 60.98174958 -20.625 57.0625 C-20.14933594 56.45470703 -19.67367187 55.84691406 -19.18359375 55.22070312 C-17.64706073 53.21844555 -17.64706073 53.21844555 -16 50 C-16.40066525 47.24306742 -16.40066525 47.24306742 -18 45 C-18.60328125 44.00033203 -18.60328125 44.00033203 -19.21875 42.98046875 C-19.85296875 42.09294922 -19.85296875 42.09294922 -20.5 41.1875 C-21.13421875 40.28064453 -21.13421875 40.28064453 -21.78125 39.35546875 C-22.1834375 38.90816406 -22.585625 38.46085937 -23 38 C-23.66 38 -24.32 38 -25 38 Z M42 59 C39.36 62.63 36.72 66.26 34 70 C34.66 71.32 35.32 72.64 36 74 C36.66708984 75.38445312 36.66708984 75.38445312 37.34765625 76.796875 C39.31816971 80.19028769 40.93990489 82.51235735 44 85 C49.55479851 86.37173587 55.37998638 85.63225153 61 85 C57.28073211 79.20924114 53.31405605 73.61407108 49.25 68.0625 C48.76619873 67.39984131 48.28239746 66.73718262 47.78393555 66.05444336 C45.95594349 63.56918133 44.18497244 61.18497244 42 59 Z M-41 60 C-42.58216951 62.10349739 -44.11367663 64.22129512 -45.625 66.375 C-46.07214355 67.00752686 -46.51928711 67.64005371 -46.97998047 68.29174805 C-47.88917176 69.57903661 -48.79688775 70.8673684 -49.703125 72.15673828 C-50.86991685 73.81511149 -52.04388847 75.46842762 -53.21875 77.12109375 C-56.34063416 80.77013494 -56.34063416 80.77013494 -58 85 C-48.0995094 86.36305777 -48.0995094 86.36305777 -39.2265625 82.9140625 C-36.27947809 79.1781674 -34.05868175 75.27726112 -32 71 C-33.30855553 69.16384919 -34.62194462 67.33114211 -35.9375 65.5 C-36.66839844 64.4790625 -37.39929688 63.458125 -38.15234375 62.40625 C-38.76207031 61.6121875 -39.37179688 60.818125 -40 60 C-40.33 60 -40.66 60 -41 60 Z M32 73 C30.66382103 74.81040321 29.33112616 76.6233784 28 78.4375 C26.88625 79.95150391 26.88625 79.95150391 25.75 81.49609375 C23.90452309 83.62746873 23.90452309 83.62746873 24 85 C29.61 85 35.22 85 41 85 C40.071875 83.576875 39.14375 82.15375 38.1875 80.6875 C37.40439453 79.48673828 37.40439453 79.48673828 36.60546875 78.26171875 C35.19610151 76.2762598 33.77903343 74.6508148 32 73 Z M-31 74 C-32.22474531 75.61830855 -33.40509331 77.27036672 -34.5625 78.9375 C-35.20316406 79.85402344 -35.84382813 80.77054687 -36.50390625 81.71484375 C-38.0912917 83.68421646 -38.0912917 83.68421646 -38 85 C-33.05 85 -28.1 85 -23 85 C-24.4290882 82.1418236 -25.73248174 79.80656282 -27.5625 77.25 C-27.99691406 76.63640625 -28.43132812 76.0228125 -28.87890625 75.390625 C-29.24886719 74.93171875 -29.61882812 74.4728125 -30 74 C-30.33 74 -30.66 74 -31 74 Z"/>
<path transform="translate(176,158)" fill="#951617" d="M0 0 C2.475 1.485 2.475 1.485 5 3 C4.67 4.65 4.34 6.3 4 8 C6.475 8.495 6.475 8.495 9 9 C9.495 11.475 9.495 11.475 10 14 C9.01 13.34 8.02 12.68 7 12 C7 11.34 7 10.68 7 10 C-2.57 10.33 -12.14 10.66 -22 11 C-19.958125 13.743125 -17.91625 16.48625 -15.8125 19.3125 C-8.9892496 28.52494127 -2.47990324 37.93059303 3.9152832 47.44384766 C4.91123181 48.96981084 4.91123181 48.96981084 6 50 C8.14386657 50.15858842 10.29266838 50.25129298 12.44140625 50.31640625 C13.74658203 50.35830078 15.05175781 50.40019531 16.39648438 50.44335938 C17.7851533 50.48317608 19.17382522 50.52288825 20.5625 50.5625 C21.95509183 50.60567989 23.34767028 50.649294 24.74023438 50.69335938 C28.16002549 50.79985806 31.57999896 50.90047056 35 51 C32.69 47.37 30.38 43.74 28 40 C28.99 39.67 29.98 39.34 31 39 C31.268125 39.78375 31.53625 40.5675 31.8125 41.375 C32.84814432 44.28114923 32.84814432 44.28114923 36 46 C36.6875 49.125 36.6875 49.125 37 52 C38.485 52.495 38.485 52.495 40 53 C40.6875 55.0625 40.6875 55.0625 41 57 C40.34 56.67 39.68 56.34 39 56 C36.82325217 55.84530633 34.6421652 55.74997894 32.4609375 55.68359375 C31.15898437 55.64169922 29.85703125 55.59980469 28.515625 55.55664062 C27.13541955 55.51682701 25.75521117 55.47711478 24.375 55.4375 C22.98696585 55.39430593 21.59894472 55.35069135 20.2109375 55.30664062 C16.80739744 55.20028 13.40378222 55.09825286 10 55 C16.11510793 63.70438786 22.25870302 72.38551808 28.5 81 C32.89168609 87.07142492 37.27718484 93.14705455 41.625 99.25 C42.12193359 99.9409375 42.61886719 100.631875 43.13085938 101.34375 C45.79435234 105.09702164 48.05904301 108.80544865 50 113 C49.01 113.99 48.02 114.98 47 116 C46.28457031 114.98164063 45.56914062 113.96328125 44.83203125 112.9140625 C37.85255507 102.99436194 30.79265389 93.13629233 23.67626953 83.31445312 C20.78061631 79.31637673 17.89046287 75.31432951 15 71.3125 C14.47220947 70.58232666 13.94441895 69.85215332 13.40063477 69.09985352 C12.89717529 68.40303467 12.39371582 67.70621582 11.875 66.98828125 C11.37830811 66.3233667 10.88161621 65.65845215 10.36987305 64.97338867 C9 63 9 63 7.98364258 60.94262695 C6.8287106 58.76597157 5.98255491 57.4806458 4 56 C-0.46436758 55.13897626 -4.78779553 55.34101097 -9.3125 55.5625 C-10.53001953 55.59408203 -11.74753906 55.62566406 -13.00195312 55.65820312 C-16.00375435 55.74060551 -19.00064653 55.85560197 -22 56 C-14.29335634 66.96981711 -6.50697916 77.87773028 1.35888672 88.73388672 C4.61355739 93.22806303 7.86069783 97.72768763 11.10717773 102.2277832 C13.90742857 106.10808837 16.7141504 109.98346804 19.53125 113.8515625 C20.11197266 114.65078125 20.69269531 115.45 21.29101562 116.2734375 C22.39173135 117.78802234 23.49444219 119.30116026 24.59960938 120.8125 C27.94470132 125.42110299 31.04687853 130.13094297 34 135 C33.01 135.99 32.02 136.98 31 138 C25.02386839 130.94742233 19.75913559 123.4614931 14.48999023 115.87646484 C8.96274955 107.92304175 3.30811112 100.06807317 -2.38232422 92.23095703 C-4.03083041 89.95748139 -5.67440347 87.68052019 -7.31640625 85.40234375 C-7.86458008 84.64219971 -8.41275391 83.88205566 -8.97753906 83.09887695 C-10.06535717 81.58918274 -11.1519704 80.07861951 -12.23730469 78.56713867 C-14.86772177 74.912663 -17.52723611 71.28838095 -20.26171875 67.7109375 C-21.03298096 66.69229614 -21.03298096 66.69229614 -21.81982422 65.65307617 C-22.78666775 64.3799232 -23.76301814 63.11391163 -24.75048828 61.85668945 C-26.72011853 59.25134865 -27.94752355 57.42154157 -28.35546875 54.14453125 C-28 52 -28 52 -27 51 C-25.00035018 50.91241997 -22.9976389 50.89303424 -20.99609375 50.90234375 C-19.78115234 50.90556641 -18.56621094 50.90878906 -17.31445312 50.91210938 C-16.03505859 50.92048828 -14.75566406 50.92886719 -13.4375 50.9375 C-12.15423828 50.94201172 -10.87097656 50.94652344 -9.54882812 50.95117188 C-6.36583978 50.96300455 -3.18294238 50.97948932 0 51 C-3.95833057 44.97078997 -8.06225461 39.07628719 -12.3125 33.25 C-13.44711938 31.67874981 -14.58123046 30.10713245 -15.71484375 28.53515625 C-17.75074295 25.71599067 -19.80472271 22.91217108 -21.87890625 20.12109375 C-22.71147898 18.97695633 -23.54354713 17.83245149 -24.375 16.6875 C-25.10460937 15.70136719 -25.83421875 14.71523437 -26.5859375 13.69921875 C-28 11 -28 11 -27.7890625 8.20703125 C-27 6 -27 6 -26 5 C-23.9291528 4.8415735 -21.85321971 4.74875578 -19.77734375 4.68359375 C-18.51728516 4.64169922 -17.25722656 4.59980469 -15.95898438 4.55664062 C-14.61849264 4.51682404 -13.2779978 4.47711186 -11.9375 4.4375 C-10.59308477 4.39431958 -9.2486834 4.35070544 -7.90429688 4.30664062 C-4.6029766 4.20014642 -1.30157764 4.0981354 2 4 C1.34 2.68 0.68 1.36 0 0 Z"/>
<path transform="translate(345,164)" fill="#921515" d="M0 0 C1.98 0 3.96 0 6 0 C6.8515625 1.98828125 6.8515625 1.98828125 7 5 C5.47364833 7.98113048 3.42026641 10.54506718 1.375 13.1875 C0.17796231 14.7861416 -1.01863904 16.38511001 -2.21484375 17.984375 C-2.8372998 18.80615234 -3.45975586 19.62792969 -4.10107422 20.47460938 C-7.191429 24.58448722 -10.1859785 28.76256346 -13.1875 32.9375 C-13.73937988 33.70022217 -14.29125977 34.46294434 -14.85986328 35.2487793 C-15.63112549 36.3147937 -15.63112549 36.3147937 -16.41796875 37.40234375 C-16.86938232 38.02616943 -17.3207959 38.64999512 -17.78588867 39.29272461 C-18.88699554 40.84109387 -19.94608661 42.41912991 -21 44 C-8.13 44.495 -8.13 44.495 5 45 C5.99 46.98 5.99 46.98 7 49 C4.74522963 53.78586065 1.79478577 57.73455254 -1.5 61.875 C-5.42444492 66.87703178 -9.16564907 71.97985198 -12.8125 77.1875 C-18.5752114 85.413448 -24.43907266 93.56169489 -30.33251953 101.69433594 C-32.0479696 104.06632868 -33.75717348 106.44271373 -35.46484375 108.8203125 C-46.40945387 124.04739354 -46.40945387 124.04739354 -52 131 C-53.485 129.02 -53.485 129.02 -55 127 C-54.57332031 126.41476562 -54.14664062 125.82953125 -53.70703125 125.2265625 C-47.68358522 116.95519125 -41.69398042 108.65954256 -35.70556641 100.36279297 C-33.50861234 97.31925999 -31.31091862 94.27626171 -29.11303711 91.23339844 C-28.03683782 89.7433014 -26.96082898 88.25306678 -25.88500977 86.76269531 C-23.13039008 82.94700925 -20.37265303 79.13364022 -17.609375 75.32421875 C-11.29963599 66.6190568 -5.08234401 57.86578957 1 49 C-7.91 49 -16.82 49 -26 49 C-26.66 50.65 -27.32 52.3 -28 54 C-29.44474024 56.019858 -30.95224084 57.9954541 -32.5 59.9375 C-36.0473446 64.44838444 -39.49663222 69.00360842 -42.8125 73.6875 C-43.63800766 74.85287391 -44.46352892 76.0182382 -45.2890625 77.18359375 C-45.71993164 77.79187012 -46.15080078 78.40014648 -46.59472656 79.02685547 C-49.27036003 82.78371261 -51.98207107 86.51457562 -54.6875 90.25 C-59.18199798 96.46132819 -63.64154393 102.6921254 -68 109 C-69.32 107.35 -70.64 105.7 -72 104 C-71.28714844 103.33226562 -70.57429688 102.66453125 -69.83984375 101.9765625 C-66.62050025 98.75156904 -64.13059412 95.12479118 -61.5625 91.375 C-57.07994178 84.92192359 -52.4965775 78.55829741 -47.8125 72.25 C-42.3863585 64.93152049 -37.13508292 57.52555256 -32 50 C-41.57 49.67 -51.14 49.34 -61 49 C-61.33 49.99 -61.66 50.98 -62 52 C-62.33 52 -62.66 52 -63 52 C-63.125 46.25 -63.125 46.25 -62 44 C-60.68 44 -59.36 44 -58 44 C-58 42.68 -58 41.36 -58 40 C-57.34 40 -56.68 40 -56 40 C-55.67 38.02 -55.34 36.04 -55 34 C-53.515 34.495 -53.515 34.495 -52 35 C-51.67 34.01 -51.34 33.02 -51 32 C-49.515 32.495 -49.515 32.495 -48 33 C-50.64 36.63 -53.28 40.26 -56 44 C-39.88508621 46.23982836 -39.88508621 46.23982836 -24.65820312 42.62158203 C-20.86226018 38.87818878 -18.61434168 34.25992576 -16.31298828 29.50341797 C-13.99028981 25.07482924 -10.92941399 21.18027655 -7.9375 17.1875 C-6.86090058 15.70354717 -5.78652316 14.2179786 -4.71484375 12.73046875 C-2.83415366 10.13326152 -0.92454623 7.56606164 1 5 C-8.57 4.67 -18.14 4.34 -28 4 C-28 3.67 -28 3.34 -28 3 C-17.77 3 -7.54 3 3 3 C3 3.66 3 4.32 3 5 C3.66 5 4.32 5 5 5 C5 3.68 5 2.36 5 1 C3.35 1 1.7 1 0 1 C0 0.67 0 0.34 0 0 Z"/>
<path transform="translate(249,238)" fill="#B1B1B1" d="M0 0 C4.63296953 1.15824238 4.92872363 1.77888937 7.5 5.5625 C8.18449219 6.54605469 8.86898438 7.52960938 9.57421875 8.54296875 C9.95368652 9.09001465 10.3331543 9.63706055 10.72412109 10.20068359 C13.66863129 14.35319798 16.79231185 18.37761529 19.875 22.42797852 C27 31.86135696 27 31.86135696 27 35 C27.66 35 28.32 35 29 35 C30.20166016 36.38598633 30.20166016 36.38598633 31.5390625 38.33203125 C32.03269287 39.04222412 32.52632324 39.75241699 33.03491211 40.48413086 C33.55964111 41.25249268 34.08437012 42.02085449 34.625 42.8125 C35.7220801 44.39362909 36.81973572 45.974359 37.91796875 47.5546875 C38.71726807 48.71049316 38.71726807 48.71049316 39.53271484 49.88964844 C41.29989853 52.43133493 43.1090725 54.93956265 44.9375 57.4375 C48.59955028 62.44668929 52.24036269 67.47090149 55.875 72.5 C56.73339478 73.68613892 56.73339478 73.68613892 57.60913086 74.89624023 C58.4174939 76.01494507 58.4174939 76.01494507 59.2421875 77.15625 C59.7254248 77.82462891 60.20866211 78.49300781 60.70654297 79.18164062 C61.83421767 80.76694096 62.92085114 82.38127671 64 84 C63.505 85.98 63.505 85.98 63 88 C57.72 88 52.44 88 47 88 C47.89203125 89.22976563 48.7840625 90.45953125 49.703125 91.7265625 C50.88547558 93.35933234 52.06776396 94.99214722 53.25 96.625 C54.12978516 97.83736328 54.12978516 97.83736328 55.02734375 99.07421875 C56.69345182 101.37681755 58.34931115 103.68632957 60 106 C60.43376953 106.60038086 60.86753906 107.20076172 61.31445312 107.81933594 C63.17663726 110.47467258 64 111.67195899 64 115 C63.01 115 62.02 115 61 115 C60.47792969 114.03835938 59.95585937 113.07671875 59.41796875 112.0859375 C56.71628906 107.35889106 53.52442123 103.01426999 50.3125 98.625 C49.71888672 97.80644531 49.12527344 96.98789062 48.51367188 96.14453125 C45.93728326 92.42259503 45.93728326 92.42259503 43 89 C41.63103105 88.91598789 40.2582604 88.89178788 38.88671875 88.89453125 C38.05076172 88.87970703 37.21480469 88.86488281 36.35351562 88.84960938 C34.58805396 88.82503518 32.82221444 88.81956618 31.05664062 88.83398438 C30.21681641 88.81271484 29.37699219 88.79144531 28.51171875 88.76953125 C27.74303467 88.76542236 26.97435059 88.76131348 26.18237305 88.75708008 C24 88 24 88 20 82 C22.97 78.04 25.94 74.08 29 70 C25.14466935 63.87682779 21.27881228 57.83474401 17 52 C17.66 51.01 18.32 50.02 19 49 C20.62558319 51.27041785 22.25048802 53.54131589 23.875 55.8125 C24.56529297 56.77639648 24.56529297 56.77639648 25.26953125 57.75976562 C25.71425781 58.38173828 26.15898437 59.00371094 26.6171875 59.64453125 C27.02565918 60.21534424 27.43413086 60.78615723 27.85498047 61.37426758 C28.92862832 62.89866439 29.9657399 64.44860985 31 66 C33.64 62.7 36.28 59.4 39 56 C33.49096037 47.66925714 27.88185755 39.45546795 21.83544922 31.50415039 C14.81406769 22.26424642 8.33404004 12.72169918 2 3 C-1.19739209 6.08991672 -3.60883312 9.24245204 -6 13 C-6.99 12.67 -7.98 12.34 -9 12 C-6.03 8.04 -3.06 4.08 0 0 Z M42 59 C39.36 62.63 36.72 66.26 34 70 C34.66 71.32 35.32 72.64 36 74 C36.66708984 75.38445312 36.66708984 75.38445312 37.34765625 76.796875 C39.31816971 80.19028769 40.93990489 82.51235735 44 85 C49.55479851 86.37173587 55.37998638 85.63225153 61 85 C57.28073211 79.20924114 53.31405605 73.61407108 49.25 68.0625 C48.76619873 67.39984131 48.28239746 66.73718262 47.78393555 66.05444336 C45.95594349 63.56918133 44.18497244 61.18497244 42 59 Z M32 73 C30.66382103 74.81040321 29.33112616 76.6233784 28 78.4375 C26.88625 79.95150391 26.88625 79.95150391 25.75 81.49609375 C23.90452309 83.62746873 23.90452309 83.62746873 24 85 C29.61 85 35.22 85 41 85 C40.071875 83.576875 39.14375 82.15375 38.1875 80.6875 C37.40439453 79.48673828 37.40439453 79.48673828 36.60546875 78.26171875 C35.19610151 76.2762598 33.77903343 74.6508148 32 73 Z"/>
<path transform="translate(211,290)" fill="#A19D9D" d="M0 0 C0.09152344 0.54140625 0.18304688 1.0828125 0.27734375 1.640625 C1.22104316 4.72167606 2.79979105 7.0578627 4.5625 9.75 C5.20316406 10.73484375 5.84382813 11.7196875 6.50390625 12.734375 C6.99761719 13.48203125 7.49132812 14.2296875 8 15 C9.32 14.67 10.64 14.34 12 14 C11.75378906 14.70511719 11.50757813 15.41023438 11.25390625 16.13671875 C10.894969 20.18442647 12.47292397 21.66542599 14.9375 24.8125 C15.68902344 25.78832031 16.44054687 26.76414062 17.21484375 27.76953125 C17.80394531 28.50558594 18.39304688 29.24164063 19 30 C20.32 28.68 21.64 27.36 23 26 C22.3836103 30.00653305 20.41427274 32.80463901 18 36 C15 37 15 37 11.12109375 36.60546875 C2.85528492 35.54473216 2.85528492 35.54473216 -4.70800781 38.20849609 C-7.7521356 41.4557699 -9.88513374 45.2466429 -11.97705078 49.15234375 C-13.48550238 51.87691696 -15.29794793 54.35692428 -17.125 56.875 C-18.08405432 58.24949721 -19.04270136 59.62427943 -20 61 C-20.99 60.34 -21.98 59.68 -23 59 C-21.08598147 56.26896745 -19.16831199 53.54051809 -17.25 50.8125 C-16.71117187 50.04357422 -16.17234375 49.27464844 -15.6171875 48.48242188 C-15.08867187 47.73154297 -14.56015625 46.98066406 -14.015625 46.20703125 C-13.53383789 45.5210083 -13.05205078 44.83498535 -12.55566406 44.12817383 C-10.77789788 41.69616067 -8.88189221 39.35236526 -7 37 C-11.95 36.67 -16.9 36.34 -22 36 C-23 31 -23 31 -21.8918457 28.78344727 C-21.32554443 28.05182373 -20.75924316 27.3202002 -20.17578125 26.56640625 C-19.55896484 25.75236328 -18.94214844 24.93832031 -18.30664062 24.09960938 C-17.64857422 23.26236328 -16.99050781 22.42511719 -16.3125 21.5625 C-15.03671852 19.89793345 -13.76195432 18.23258664 -12.48828125 16.56640625 C-11.88193848 15.78410645 -11.2755957 15.00180664 -10.65087891 14.19580078 C-9.23023017 12.30622452 -7.93070863 10.39870327 -6.66796875 8.40234375 C-6.11753906 7.60957031 -5.56710938 6.81679688 -5 6 C-4.34 6 -3.68 6 -3 6 C-2.690625 5.195625 -2.38125 4.39125 -2.0625 3.5625 C-1 1 -1 1 0 0 Z M-3 8 C-4.58216951 10.10349739 -6.11367663 12.22129512 -7.625 14.375 C-8.07214355 15.00752686 -8.51928711 15.64005371 -8.97998047 16.29174805 C-9.88917176 17.57903661 -10.79688775 18.8673684 -11.703125 20.15673828 C-12.86991685 21.81511149 -14.04388847 23.46842762 -15.21875 25.12109375 C-18.34063416 28.77013494 -18.34063416 28.77013494 -20 33 C-10.0995094 34.36305777 -10.0995094 34.36305777 -1.2265625 30.9140625 C1.72052191 27.1781674 3.94131825 23.27726112 6 19 C4.69144447 17.16384919 3.37805538 15.33114211 2.0625 13.5 C1.33160156 12.4790625 0.60070312 11.458125 -0.15234375 10.40625 C-0.76207031 9.6121875 -1.37179688 8.818125 -2 8 C-2.33 8 -2.66 8 -3 8 Z M7 22 C5.77525469 23.61830855 4.59490669 25.27036672 3.4375 26.9375 C2.79683594 27.85402344 2.15617187 28.77054687 1.49609375 29.71484375 C-0.0912917 31.68421646 -0.0912917 31.68421646 0 33 C4.95 33 9.9 33 15 33 C13.5709118 30.1418236 12.26751826 27.80656282 10.4375 25.25 C10.00308594 24.63640625 9.56867188 24.0228125 9.12109375 23.390625 C8.75113281 22.93171875 8.38117188 22.4728125 8 22 C7.67 22 7.34 22 7 22 Z"/>
<path transform="translate(158.30178833007813,118.87974548339844)" fill="#D20D0D" d="M0 0 C1.14187438 -0.00128164 1.14187438 -0.00128164 2.30681694 -0.00258917 C4.8710619 -0.00424319 7.43524221 0.00127614 9.9994812 0.00672913 C11.8322652 0.00701104 13.66504932 0.00685318 15.49783325 0.00628662 C20.48516889 0.00599881 25.47248066 0.01189287 30.45981073 0.01886058 C35.66752153 0.02509687 40.87523282 0.02569813 46.08294678 0.02688599 C55.94977396 0.02999849 65.81659011 0.03821079 75.68341243 0.04823548 C86.9141989 0.05939913 98.14498589 0.0649077 109.37577653 0.06993091 C132.48326103 0.08039346 155.59073574 0.09799134 178.69821167 0.12025452 C179.02821167 0.78025452 179.35821167 1.44025452 179.69821167 2.12025452 C118.31821167 2.12025452 56.93821167 2.12025452 -6.30178833 2.12025452 C-4.98178833 4.43025452 -3.66178833 6.74025452 -2.30178833 9.12025452 C-2.30178833 9.78025452 -2.30178833 10.44025452 -2.30178833 11.12025452 C-0.98178833 11.78025452 0.33821167 12.44025452 1.69821167 13.12025452 C1.36821167 14.44025452 1.03821167 15.76025452 0.69821167 17.12025452 C-0.30757422 15.83308805 -1.30625631 14.54036794 -2.30178833 13.24525452 C-2.85866333 12.52595764 -3.41553833 11.80666077 -3.98928833 11.06556702 C-5.30178833 9.12025452 -5.30178833 9.12025452 -5.30178833 7.12025452 C-8.27178833 6.62525452 -8.27178833 6.62525452 -11.30178833 6.12025452 C-11.30178833 5.46025452 -11.30178833 4.80025452 -11.30178833 4.12025452 C-10.64178833 4.12025452 -9.98178833 4.12025452 -9.30178833 4.12025452 C-9.30178833 3.13025452 -9.30178833 2.14025452 -9.30178833 1.12025452 C-6.31797517 -0.37165206 -3.27132719 -0.01327341 0 0 Z"/>
<path transform="translate(250,240)" fill="#B4B2AF" d="M0 0 C3.59977508 3.41827382 5.66353897 6.66085809 8 11 C5.36 14.3 2.72 17.6 0 21 C-2.66666667 18.33333333 -5.33333333 15.66666667 -8 13 C-10.20822245 15.9014964 -12.38772761 18.82337131 -14.5625 21.75 C-15.50512695 22.9875 -15.50512695 22.9875 -16.46679688 24.25 C-17.35141602 25.44882812 -17.35141602 25.44882812 -18.25390625 26.671875 C-18.80377197 27.4050293 -19.3536377 28.13818359 -19.92016602 28.89355469 C-21.20680564 30.92487281 -21.20680564 30.92487281 -20.75976562 33.12304688 C-19.77053521 35.5668783 -18.4355305 37.58263673 -16.9375 39.75 C-16.11572266 40.94882812 -16.11572266 40.94882812 -15.27734375 42.171875 C-14.85582031 42.77515625 -14.43429688 43.3784375 -14 44 C-14.99 45.32 -15.98 46.64 -17 48 C-18.17232685 46.3790787 -19.3377077 44.75313167 -20.5 43.125 C-21.47453125 41.76761719 -21.47453125 41.76761719 -22.46875 40.3828125 C-24 38 -24 38 -24 36 C-24.66 36 -25.32 36 -26 36 C-26.23460937 36.69480469 -26.46921875 37.38960938 -26.7109375 38.10546875 C-28.24355298 41.54688715 -30.32824412 44.35901548 -32.625 47.3125 C-33.04523438 47.86228516 -33.46546875 48.41207031 -33.8984375 48.97851562 C-34.92720039 50.32292168 -35.9629009 51.66201413 -37 53 C-37.66 51.68 -38.32 50.36 -39 49 C-38.28972656 48.08476562 -37.57945312 47.16953125 -36.84765625 46.2265625 C-35.91918172 45.02611058 -34.99080118 43.82558597 -34.0625 42.625 C-33.59392578 42.02171875 -33.12535156 41.4184375 -32.64257812 40.796875 C-30.09448545 37.54591619 -30.09448545 37.54591619 -28 34 C-27.34 34 -26.68 34 -26 34 C-25.72978027 33.26555664 -25.45956055 32.53111328 -25.18115234 31.77441406 C-23.29157462 27.33597644 -20.43454931 23.64871379 -17.625 19.75 C-17.0475 18.92242187 -16.47 18.09484375 -15.875 17.2421875 C-15.31039062 16.45585937 -14.74578125 15.66953125 -14.1640625 14.859375 C-13.65311035 14.14233398 -13.1421582 13.42529297 -12.61572266 12.68652344 C-10.74177981 10.73046463 -9.59347775 10.54181749 -7 10 C-4.99504596 7.70640931 -4.99504596 7.70640931 -3.25 4.9375 C-2.63640625 4.01839844 -2.0228125 3.09929687 -1.390625 2.15234375 C-0.93171875 1.44207031 -0.4728125 0.73179687 0 0 Z"/>
<path transform="translate(249,238)" fill="#C3BDBC" d="M0 0 C4.63296953 1.15824238 4.92872363 1.77888937 7.5 5.5625 C8.18449219 6.54605469 8.86898438 7.52960938 9.57421875 8.54296875 C9.95368652 9.09001465 10.3331543 9.63706055 10.72412109 10.20068359 C13.66863129 14.35319798 16.79231185 18.37761529 19.875 22.42797852 C27 31.86135696 27 31.86135696 27 35 C27.66 35 28.32 35 29 35 C30.20166016 36.38598633 30.20166016 36.38598633 31.5390625 38.33203125 C32.0330957 39.04278809 32.52712891 39.75354492 33.03613281 40.48583984 C33.56045898 41.2536377 34.08478516 42.02143555 34.625 42.8125 C35.71555394 44.38452536 36.80669999 45.95614012 37.8984375 47.52734375 C38.43049805 48.29675293 38.96255859 49.06616211 39.51074219 49.85888672 C41.38785756 52.55762472 43.31053268 55.22078875 45.25 57.875 C45.86359375 58.71933594 46.4771875 59.56367188 47.109375 60.43359375 C48.47848316 62.29207321 49.86638448 64.13675619 51.265625 65.97265625 C52.00296875 66.95105469 52.7403125 67.92945313 53.5 68.9375 C54.1703125 69.81277344 54.840625 70.68804687 55.53125 71.58984375 C57 74 57 74 57 78 C56.34 78 55.68 78 55 78 C53.73828125 76.4621582 53.73828125 76.4621582 52.3125 74.30078125 C51.78358154 73.51002197 51.25466309 72.7192627 50.7097168 71.90454102 C49.86340698 70.62148071 49.86340698 70.62148071 49 69.3125 C45.05444231 63.4266833 41.07873965 57.6254908 36.6875 52.0625 C32.86685717 47.19594851 29.42711502 42.18634021 26.046875 37.0078125 C23.52920123 33.30817738 20.78207889 29.82021356 18.01416016 26.3059082 C12.228258 18.85530982 7.14909757 10.89697176 2 3 C-1.19739209 6.08991672 -3.60883312 9.24245204 -6 13 C-6.99 12.67 -7.98 12.34 -9 12 C-6.03 8.04 -3.06 4.08 0 0 Z"/>
<path transform="translate(345,164)" fill="#961717" d="M0 0 C1.98 0 3.96 0 6 0 C6.8515625 1.98828125 6.8515625 1.98828125 7 5 C5.47364833 7.98113048 3.42026641 10.54506718 1.375 13.1875 C0.17796231 14.7861416 -1.01863904 16.38511001 -2.21484375 17.984375 C-3.14852783 19.21704102 -3.14852783 19.21704102 -4.10107422 20.47460938 C-7.191429 24.58448722 -10.1859785 28.76256346 -13.1875 32.9375 C-13.73937988 33.70022217 -14.29125977 34.46294434 -14.85986328 35.2487793 C-15.63112549 36.3147937 -15.63112549 36.3147937 -16.41796875 37.40234375 C-16.86938232 38.02616943 -17.3207959 38.64999512 -17.78588867 39.29272461 C-18.88699554 40.84109387 -19.94608661 42.41912991 -21 44 C-8.13 44.495 -8.13 44.495 5 45 C5 45.33 5 45.66 5 46 C0.92492428 46.04946866 -3.15003497 46.08575189 -7.2253418 46.10986328 C-8.61144048 46.1199157 -9.99751799 46.1335597 -11.38354492 46.15087891 C-13.3766975 46.17515952 -15.37000533 46.18542031 -17.36328125 46.1953125 C-19.16212769 46.21102295 -19.16212769 46.21102295 -20.99731445 46.22705078 C-24 46 -24 46 -27 44 C-20.69569826 35.02630924 -14.36013717 26.07700748 -7.9375 17.1875 C-7.39005127 16.42969238 -6.84260254 15.67188477 -6.27856445 14.89111328 C-3.8773909 11.5733325 -1.45759697 8.27679597 1 5 C-8.57 4.67 -18.14 4.34 -28 4 C-28 3.67 -28 3.34 -28 3 C-17.77 3 -7.54 3 3 3 C3 3.66 3 4.32 3 5 C3.66 5 4.32 5 5 5 C5 3.68 5 2.36 5 1 C3.35 1 1.7 1 0 1 C0 0.67 0 0.34 0 0 Z"/>
<path transform="translate(205,197)" fill="#AD191A" d="M0 0 C0.66 0 1.32 0 2 0 C2.268125 0.78375 2.53625 1.5675 2.8125 2.375 C3.84814432 5.28114923 3.84814432 5.28114923 7 7 C7.6875 10.125 7.6875 10.125 8 13 C8.99 13.33 9.98 13.66 11 14 C11.6875 16.0625 11.6875 16.0625 12 18 C11.34 17.67 10.68 17.34 10 17 C10 16.34 10 15.68 10 15 C-0.23 15 -10.46 15 -21 15 C-21 15.99 -21 16.98 -21 18 C-21.53463867 17.83701416 -22.06927734 17.67402832 -22.62011719 17.50610352 C-25.4937985 16.8949893 -28.13965754 16.8879395 -31.078125 16.90234375 C-32.81835938 16.90717773 -32.81835938 16.90717773 -34.59375 16.91210938 C-36.40359375 16.92467773 -36.40359375 16.92467773 -38.25 16.9375 C-40.08304688 16.94426758 -40.08304688 16.94426758 -41.953125 16.95117188 C-44.96879946 16.96295185 -47.98437498 16.97940147 -51 17 C-51.33 17.66 -51.66 18.32 -52 19 C-52.99 18.67 -53.98 18.34 -55 18 C-55.33 16.35 -55.66 14.7 -56 13 C-46.43 13 -36.86 13 -27 13 C-26.67 12.01 -26.34 11.02 -26 10 C-25.67 10.33 -25.34 10.66 -25 11 C-22.71011219 11.15888092 -20.41556559 11.25138073 -18.12109375 11.31640625 C-17.4344313 11.33718735 -16.74776886 11.35796844 -16.04029846 11.37937927 C-13.83947065 11.44494143 -11.63852025 11.50379015 -9.4375 11.5625 C-7.94855486 11.60567892 -6.45962227 11.649293 -4.97070312 11.69335938 C-1.31393447 11.8006293 2.34297318 11.90187772 6 12 C3.69 8.37 1.38 4.74 -1 1 C-0.67 0.67 -0.34 0.34 0 0 Z"/>
<path transform="translate(294,196)" fill="#BA1E21" d="M0 0 C0.99 0.33 1.98 0.66 3 1 C0.36 4.63 -2.28 8.26 -5 12 C5.56 12 16.12 12 27 12 C27 12.66 27 13.32 27 14 C36.57 14 46.14 14 56 14 C56 14.66 56 15.32 56 16 C33.93608694 16.94808396 12.06391306 16.94808396 -10 16 C-10.33 17.32 -10.66 18.64 -11 20 C-11.33 20 -11.66 20 -12 20 C-12.125 14.25 -12.125 14.25 -11 12 C-9.68 12 -8.36 12 -7 12 C-7 10.68 -7 9.36 -7 8 C-6.34 8 -5.68 8 -5 8 C-4.67 6.02 -4.34 4.04 -4 2 C-3.01 2.33 -2.02 2.66 -1 3 C-0.67 2.01 -0.34 1.02 0 0 Z"/>
<path transform="translate(211,290)" fill="#B7B7B7" d="M0 0 C0.09152344 0.54527344 0.18304688 1.09054687 0.27734375 1.65234375 C1.52276324 5.6982741 4.15363683 8.95619788 6.50390625 12.44140625 C8 15 8 15 8 18 C6.68 18 5.36 18 4 18 C2.296875 16.25 2.296875 16.25 0.75 14 C-0.03117187 12.88625 -0.03117187 12.88625 -0.828125 11.75 C-1.21484375 11.1725 -1.6015625 10.595 -2 10 C-6.48410364 14.15133157 -9.85035049 18.79385556 -13.3125 23.8125 C-13.86228516 24.60076172 -14.41207031 25.38902344 -14.97851562 26.20117188 C-16.32352874 28.1309733 -17.66239359 30.06505739 -19 32 C-14.05 32.33 -9.1 32.66 -4 33 C-4 33.33 -4 33.66 -4 34 C-5.20398438 33.98839844 -6.40796875 33.97679687 -7.6484375 33.96484375 C-9.22395679 33.95546566 -10.79947775 33.94636548 -12.375 33.9375 C-13.1690625 33.92912109 -13.963125 33.92074219 -14.78125 33.91210938 C-19.02392222 33.76959849 -19.02392222 33.76959849 -23 35 C-22.44902159 31.20772863 -21.48279881 28.84985743 -19.19921875 25.78515625 C-18.63396484 25.01623047 -18.06871094 24.24730469 -17.48632812 23.45507812 C-16.89271484 22.66552734 -16.29910156 21.87597656 -15.6875 21.0625 C-14.52380553 19.4915769 -13.36102509 17.91997626 -12.19921875 16.34765625 C-11.37043213 15.23608154 -11.37043213 15.23608154 -10.52490234 14.10205078 C-9.1800208 12.24815548 -7.93161292 10.367831 -6.70703125 8.43359375 C-6.14371094 7.63050781 -5.58039063 6.82742188 -5 6 C-4.34 6 -3.68 6 -3 6 C-2.690625 5.195625 -2.38125 4.39125 -2.0625 3.5625 C-1 1 -1 1 0 0 Z"/>
<path transform="translate(301,237)" fill="#941617" d="M0 0 C-0.61225682 3.18727195 -1.66797129 5.23416808 -3.58984375 7.8359375 C-4.12262939 8.56441895 -4.65541504 9.29290039 -5.2043457 10.04345703 C-5.77628662 10.81286621 -6.34822754 11.58227539 -6.9375 12.375 C-8.11754753 13.98411104 -9.29723042 15.59348953 -10.4765625 17.203125 C-11.06727539 18.00556641 -11.65798828 18.80800781 -12.26660156 19.63476562 C-14.81304771 23.10940933 -17.31514906 26.61498546 -19.8125 30.125 C-20.63147875 31.27346008 -21.45048578 32.4219 -22.26953125 33.5703125 C-22.84058594 34.37210937 -23.41164063 35.17390625 -24 36 C-25.32 34.35 -26.64 32.7 -28 31 C-27.29617188 30.34515625 -26.59234375 29.6903125 -25.8671875 29.015625 C-22.46113 25.60717056 -19.84318719 21.71184495 -17.125 17.75 C-16.06633415 16.23481694 -15.00644655 14.72048676 -13.9453125 13.20703125 C-13.4390332 12.48338379 -12.93275391 11.75973633 -12.41113281 11.01416016 C-10.62958645 8.47129554 -8.84185959 5.93716659 -7 3.4375 C-6.505 2.75558594 -6.01 2.07367188 -5.5 1.37109375 C-4 0 -4 0 0 0 Z"/>
<path transform="translate(250,240)" fill="#D41212" d="M0 0 C3.78318216 3.78318216 5.53673537 6.42536568 8 11 C5.36 14.3 2.72 17.6 0 21 C-3.43301849 17.75255007 -5.51567521 15.14054132 -8 11 C-5.36 7.37 -2.72 3.74 0 0 Z"/>
<path transform="translate(176,158)" fill="#931515" d="M0 0 C2.475 1.485 2.475 1.485 5 3 C4.67 4.65 4.34 6.3 4 8 C6.475 8.495 6.475 8.495 9 9 C9.495 11.475 9.495 11.475 10 14 C9.01 13.34 8.02 12.68 7 12 C7 11.34 7 10.68 7 10 C-8.345 10.495 -8.345 10.495 -24 11 C-24 10.34 -24 9.68 -24 9 C-23.34 8.67 -22.68 8.34 -22 8 C-23.32 7.67 -24.64 7.34 -26 7 C-25.67 9.31 -25.34 11.62 -25 14 C-26.5625 12.8125 -26.5625 12.8125 -28 11 C-27.57894737 6.57894737 -27.57894737 6.57894737 -26 5 C-23.9291528 4.8415735 -21.85321971 4.74875578 -19.77734375 4.68359375 C-18.51728516 4.64169922 -17.25722656 4.59980469 -15.95898438 4.55664062 C-14.61849264 4.51682404 -13.2779978 4.47711186 -11.9375 4.4375 C-10.59308477 4.39431958 -9.2486834 4.35070544 -7.90429688 4.30664062 C-4.6029766 4.20014642 -1.30157764 4.0981354 2 4 C1.34 2.68 0.68 1.36 0 0 Z"/>
<path transform="translate(150,165)" fill="#9D1617" d="M0 0 C9.57 0 19.14 0 29 0 C29 0.33 29 0.66 29 1 C15.635 1.495 15.635 1.495 2 2 C2 2.66 2 3.32 2 4 C2.99 4.33 3.98 4.66 5 5 C6.81255374 7.23818537 8.48168203 9.45644614 10.125 11.8125 C10.58003906 12.44220703 11.03507813 13.07191406 11.50390625 13.72070312 C13.69819188 16.8233058 15.23229366 19.22999512 16 23 C13.79296875 23.38671875 13.79296875 23.38671875 11 23 C9.15679499 20.93959243 7.77230222 19.11784354 6.3125 16.8125 C5.72758789 15.9452832 5.72758789 15.9452832 5.13085938 15.06054688 C1.62892596 9.76275017 0 6.38920829 0 0 Z"/>
<path transform="translate(189,325)" fill="#9D9D9D" d="M0 0 C2.79192205 -0.05380578 5.5828141 -0.09357669 8.375 -0.125 C9.1690625 -0.14175781 9.963125 -0.15851563 10.78125 -0.17578125 C12.85492015 -0.19335473 14.92883241 -0.10335168 17 0 C17.66 0.66 18.32 1.32 19 2 C18.03900391 3.34191406 18.03900391 3.34191406 17.05859375 4.7109375 C12.0000334 11.78037848 6.96524985 18.86450849 2 26 C1.01 25.34 0.02 24.68 -1 24 C0.91401853 21.26896745 2.83168801 18.54051809 4.75 15.8125 C5.28882813 15.04357422 5.82765625 14.27464844 6.3828125 13.48242188 C7.17558594 12.35610352 7.17558594 12.35610352 7.984375 11.20703125 C8.46616211 10.5210083 8.94794922 9.83498535 9.44433594 9.12817383 C11.22210212 6.69616067 13.11810779 4.35236526 15 2 C10.05 1.67 5.1 1.34 0 1 C0 0.67 0 0.34 0 0 Z"/>
<path transform="translate(278,308)" fill="#9C4145" d="M0 0 C1.32 0.66 2.64 1.32 4 2 C1.33333333 6 -1.33333333 10 -4 14 C1.61 14.33 7.22 14.66 13 15 C13 15.33 13 15.66 13 16 C9.89614789 16.11613204 6.79285338 16.18722029 3.6875 16.25 C2.80642578 16.28351563 1.92535156 16.31703125 1.01757812 16.3515625 C0.17001953 16.36445313 -0.67753906 16.37734375 -1.55078125 16.390625 C-2.72120972 16.4220459 -2.72120972 16.4220459 -3.9152832 16.45410156 C-6 16 -6 16 -9 12 C-6.03 8.04 -3.06 4.08 0 0 Z"/>
<path transform="translate(184,212)" fill="#811313" d="M0 0 C10.23 0 20.46 0 31 0 C31 0.33 31 0.66 31 1 C21.43 1 11.86 1 2 1 C4.31 4.63 6.62 8.26 9 12 C8.01 12 7.02 12 6 12 C5.67 12.66 5.34 13.32 5 14 C3.82750647 12.54634731 2.66216184 11.08692581 1.5 9.625 C0.8503125 8.81289062 0.200625 8.00078125 -0.46875 7.1640625 C-2 5 -2 5 -2 3 C-1.34 3 -0.68 3 0 3 C0 2.01 0 1.02 0 0 Z"/>
<path transform="translate(345,164)" fill="#860F0F" d="M0 0 C1.98 0 3.96 0 6 0 C6.71484375 2.16796875 6.71484375 2.16796875 7 5 C5.56640625 7.67578125 5.56640625 7.67578125 3.5625 10.3125 C2.90378906 11.19550781 2.24507813 12.07851562 1.56640625 12.98828125 C0.79103516 13.98408203 0.79103516 13.98408203 0 15 C-0.99 14.01 -1.98 13.02 -3 12 C-1.92598892 9.08482708 -1.22189824 7.22189824 1 5 C-8.57 4.67 -18.14 4.34 -28 4 C-28 3.67 -28 3.34 -28 3 C-17.77 3 -7.54 3 3 3 C3 3.66 3 4.32 3 5 C3.66 5 4.32 5 5 5 C5 3.68 5 2.36 5 1 C3.35 1 1.7 1 0 1 C0 0.67 0 0.34 0 0 Z"/>
<path transform="translate(176,120)" fill="#821517" d="M0 0 C0 0.33 0 0.66 0 1 C-7.92 1 -15.84 1 -24 1 C-22.68 3.31 -21.36 5.62 -20 8 C-20 8.66 -20 9.32 -20 10 C-18.68 10.66 -17.36 11.32 -16 12 C-16.33 13.32 -16.66 14.64 -17 16 C-18.00578589 14.71283353 -19.00446798 13.42011342 -20 12.125 C-20.556875 11.40570313 -21.11375 10.68640625 -21.6875 9.9453125 C-23 8 -23 8 -23 6 C-25.97 5.505 -25.97 5.505 -29 5 C-29 4.34 -29 3.68 -29 3 C-28.34 3 -27.68 3 -27 3 C-27 2.01 -27 1.02 -27 0 C-20.05914488 -3.47042756 -7.50599754 -0.98902556 0 0 Z"/>
<path transform="translate(295,328)" fill="#B0B0B0" d="M0 0 C3.31775431 1.39213649 4.91713498 2.85690222 6.9453125 5.80859375 C7.46480469 6.55560547 7.98429687 7.30261719 8.51953125 8.07226562 C9.04933594 8.85279297 9.57914062 9.63332031 10.125 10.4375 C10.66253906 11.21416016 11.20007813 11.99082031 11.75390625 12.79101562 C18 21.83305408 18 21.83305408 18 25 C17.01 25 16.02 25 15 25 C14.18789063 23.50726563 14.18789063 23.50726563 13.359375 21.984375 C10.56622728 17.09267185 7.14309107 12.7115001 3.71484375 8.25390625 C3.23660156 7.61839844 2.75835937 6.98289062 2.265625 6.328125 C1.83024414 5.7599707 1.39486328 5.19181641 0.94628906 4.60644531 C0 3 0 3 0 0 Z"/>
<path transform="translate(327.05078125,164.90234375)" fill="#B81C1E" d="M0 0 C0.65880661 0.00141495 1.31761322 0.0028299 1.99638367 0.00428772 C4.08487637 0.00985125 6.17325886 0.02239678 8.26171875 0.03515625 C9.68424324 0.04017597 11.10676941 0.04473805 12.52929688 0.04882812 C16.00263952 0.05980868 19.47591836 0.0770479 22.94921875 0.09765625 C22.94921875 1.41765625 22.94921875 2.73765625 22.94921875 4.09765625 C22.28921875 4.09765625 21.62921875 4.09765625 20.94921875 4.09765625 C20.94921875 3.43765625 20.94921875 2.77765625 20.94921875 2.09765625 C10.71921875 2.09765625 0.48921875 2.09765625 -10.05078125 2.09765625 C-10.38078125 3.08765625 -10.71078125 4.07765625 -11.05078125 5.09765625 C-11.38078125 3.77765625 -11.71078125 2.45765625 -12.05078125 1.09765625 C-7.97774095 0.1208026 -4.18257425 -0.01779819 0 0 Z"/>
<path transform="translate(306,313)" fill="#8B8B8B" d="M0 0 C1.33895632 1.66215268 2.67130142 3.32963607 4 5 C4.8971875 6.0209375 4.8971875 6.0209375 5.8125 7.0625 C6.204375 7.701875 6.59625 8.34125 7 9 C6.67 10.32 6.34 11.64 6 13 C-2.415 13.495 -2.415 13.495 -11 14 C-11 13.34 -11 12.68 -11 12 C-11.66 11.34 -12.32 10.68 -13 10 C-5.08 9.505 -5.08 9.505 3 9 C1.68 7.02 0.36 5.04 -1 3 C-0.67 2.01 -0.34 1.02 0 0 Z"/>
<path transform="translate(262,284)" fill="#921D1D" d="M0 0 C1.32 1.65 2.64 3.3 4 5 C3.34 5 2.68 5 2 5 C1.79375 5.680625 1.5875 6.36125 1.375 7.0625 C-0.45408866 10.97009851 -3.10279034 13.83857939 -6 17 C-6.66 16.67 -7.32 16.34 -8 16 C-7.43555175 11.65136348 -5.84572036 8.82172345 -3.4375 5.1875 C-2.79683594 4.21167969 -2.15617187 3.23585938 -1.49609375 2.23046875 C-0.75552734 1.12638672 -0.75552734 1.12638672 0 0 Z"/>
<path transform="translate(294,196)" fill="#861314" d="M0 0 C0.99 0.33 1.98 0.66 3 1 C0.36 4.63 -2.28 8.26 -5 12 C4.57 12.33 14.14 12.66 24 13 C24 13.33 24 13.66 24 14 C13.77 14 3.54 14 -7 14 C-7 12.02 -7 10.04 -7 8 C-6.34 8 -5.68 8 -5 8 C-4.67 6.02 -4.34 4.04 -4 2 C-3.01 2.33 -2.02 2.66 -1 3 C-0.67 2.01 -0.34 1.02 0 0 Z"/>
<path transform="translate(254,246)" fill="#931818" d="M0 0 C1.32 1.32 2.64 2.64 4 4 C3.06981474 5.46300982 2.13055973 6.92025579 1.1875 8.375 C0.66542969 9.18710938 0.14335937 9.99921875 -0.39453125 10.8359375 C-2 13 -2 13 -5 15 C-7.31 12.03 -9.62 9.06 -12 6 C-11.34 5.01 -10.68 4.02 -10 3 C-9.34 3.33 -8.68 3.66 -8 4 C-8.33 4.99 -8.66 5.98 -9 7 C-6.69 7.33 -4.38 7.66 -2 8 C-0.52952664 4.08936776 -0.52952664 4.08936776 0 0 Z"/>
<path transform="translate(325,198)" fill="#7E1314" d="M0 0 C1.08711385 4.3484554 0.94219172 6.11561657 -1 10 C11.87 10.495 11.87 10.495 25 11 C25 11.33 25 11.66 25 12 C20.92492428 12.04946866 16.84996503 12.08575189 12.7746582 12.10986328 C11.38855952 12.1199157 10.00248201 12.1335597 8.61645508 12.15087891 C6.6233025 12.17515952 4.62999467 12.18542031 2.63671875 12.1953125 C0.83787231 12.21102295 0.83787231 12.21102295 -0.99731445 12.22705078 C-4 12 -4 12 -7 10 C-3.535 5.05 -3.535 5.05 0 0 Z"/>
<path transform="translate(237,285)" fill="#901A1E" d="M0 0 C1.35156675 1.65191491 2.679762 3.32294092 4 5 C4.46664062 5.56589844 4.93328125 6.13179688 5.4140625 6.71484375 C9.04176169 11.3457335 9.04176169 11.3457335 8.8125 14.9375 C8.544375 15.618125 8.27625 16.29875 8 17 C4.74483572 13.83525695 1.67991207 10.67247209 -1 7 C-1 6.34 -1 5.68 -1 5 C-1.66 4.67 -2.32 4.34 -3 4 C-2.01 2.68 -1.02 1.36 0 0 Z"/>
<path transform="translate(220,309)" fill="#961C1C" d="M0 0 C0.66 0 1.32 0 2 0 C3.9453125 2.30078125 3.9453125 2.30078125 6.125 5.3125 C6.84945312 6.29863281 7.57390625 7.28476562 8.3203125 8.30078125 C10 11 10 11 10 14 C8.68 14 7.36 14 6 14 C3.859375 11.59375 3.859375 11.59375 1.75 8.5 C0.69039062 6.96859375 0.69039062 6.96859375 -0.390625 5.40625 C-0.92171875 4.6121875 -1.4528125 3.818125 -2 3 C-1.34 2.01 -0.68 1.02 0 0 Z"/>
<path transform="translate(288,294)" fill="#8B1417" d="M0 0 C0.66 0 1.32 0 2 0 C2.74609375 1.640625 2.74609375 1.640625 3 4 C1.34765625 6.796875 1.34765625 6.796875 -0.9375 9.75 C-2.06478516 11.22726562 -2.06478516 11.22726562 -3.21484375 12.734375 C-3.80394531 13.48203125 -4.39304687 14.2296875 -5 15 C-5.99 13.68 -6.98 12.36 -8 11 C-6.71632558 9.16106176 -5.42283239 7.32897375 -4.125 5.5 C-3.04605469 3.96859375 -3.04605469 3.96859375 -1.9453125 2.40625 C-1.30335938 1.6121875 -0.66140625 0.818125 0 0 Z"/>
<path transform="translate(210,295)" fill="#9A1B1C" d="M0 0 C3.94875582 1.31625194 4.54992713 3.05365398 6.6875 6.5625 C7.31011719 7.57441406 7.93273437 8.58632813 8.57421875 9.62890625 C9.04472656 10.41136719 9.51523438 11.19382812 10 12 C8.02 12.99 8.02 12.99 6 14 C3.36 10.37 0.72 6.74 -2 3 C-1.34 2.01 -0.68 1.02 0 0 Z"/>
<path transform="translate(293,297)" fill="#B1AFAF" d="M0 0 C4.17091527 1.39030509 5.75224917 4.35590289 8.1875 7.8125 C8.65091797 8.44220703 9.11433594 9.07191406 9.59179688 9.72070312 C10.02943359 10.33494141 10.46707031 10.94917969 10.91796875 11.58203125 C11.31781982 12.14124268 11.7176709 12.7004541 12.12963867 13.27661133 C13 15 13 15 13 19 C12.34 19 11.68 19 11 19 C9.67138672 17.43945312 9.67138672 17.43945312 8.1796875 15.28125 C7.64472656 14.51425781 7.10976563 13.74726563 6.55859375 12.95703125 C6.00300781 12.14621094 5.44742187 11.33539063 4.875 10.5 C4.03001953 9.28376953 4.03001953 9.28376953 3.16796875 8.04296875 C1.77261256 6.03270983 0.38365151 4.01832507 -1 2 C-0.67 1.34 -0.34 0.68 0 0 Z"/>
<path transform="translate(272,272)" fill="#931E20" d="M0 0 C0.99 0.33 1.98 0.66 3 1 C1.6744419 4.62276315 0.05653045 7.63505348 -2.125 10.8125 C-2.93324219 11.99779297 -2.93324219 11.99779297 -3.7578125 13.20703125 C-4.16773438 13.79871094 -4.57765625 14.39039063 -5 15 C-6.32 13.35 -7.64 11.7 -9 10 C-8.2575 9.278125 -7.515 8.55625 -6.75 7.8125 C-4.30709485 5.31407427 -2.1318953 2.76356798 0 0 Z"/>
<path transform="translate(227,272)" fill="#8E1E1A" d="M0 0 C3.9036874 3.46994436 6.36588975 7.55224006 9 12 C8.01 13.32 7.02 14.64 6 16 C3.36 12.04 0.72 8.08 -2 4 C-1.34 2.68 -0.68 1.36 0 0 Z"/>
<path transform="translate(249,238)" fill="#FAD3CD" d="M0 0 C4 1 4 1 5.921875 3.50390625 C6.52515625 4.51324219 7.1284375 5.52257812 7.75 6.5625 C8.67039062 8.08037109 8.67039062 8.08037109 9.609375 9.62890625 C10.06828125 10.41136719 10.5271875 11.19382813 11 12 C10.01 12 9.02 12 8 12 C6.39453125 10.03125 6.39453125 10.03125 4.8125 7.5 C4.28269531 6.6646875 3.75289062 5.829375 3.20703125 4.96875 C2.80871094 4.3190625 2.41039062 3.669375 2 3 C-1.25524265 6.02272532 -3.61820737 9.25718301 -6 13 C-6.99 12.67 -7.98 12.34 -9 12 C-6.03 8.04 -3.06 4.08 0 0 Z"/>
<path transform="translate(321,159)" fill="#C20B0D" d="M0 0 C0.66 0 1.32 0 2 0 C1.67 1.32 1.34 2.64 1 4 C9.58 4 18.16 4 27 4 C23.55366118 6.29755922 22.28931609 6.23643976 18.23828125 6.1953125 C17.12001953 6.18886719 16.00175781 6.18242187 14.84960938 6.17578125 C13.09874023 6.15064453 13.09874023 6.15064453 11.3125 6.125 C10.13365234 6.11597656 8.95480469 6.10695312 7.74023438 6.09765625 C4.82661974 6.07406423 1.91341108 6.0411454 -1 6 C-1.042721 4.33388095 -1.04063832 2.66617115 -1 1 C-0.67 0.67 -0.34 0.34 0 0 Z"/>
<path transform="translate(280,280)" fill="#C4BDBC" d="M0 0 C2.42048538 0.38016917 3.68686867 0.65984577 5.37207031 2.49047852 C5.77006836 3.11365967 6.16806641 3.73684082 6.578125 4.37890625 C7.01640625 5.05244141 7.4546875 5.72597656 7.90625 6.41992188 C8.3496875 7.12697266 8.793125 7.83402344 9.25 8.5625 C9.70890625 9.27341797 10.1678125 9.98433594 10.640625 10.71679688 C11.77093497 12.47113214 12.88687103 14.23471341 14 16 C13.34 16.66 12.68 17.32 12 18 C10.17922418 15.75627625 8.36837515 13.50566562 6.5625 11.25 C6.04623047 10.61578125 5.52996094 9.9815625 4.99804688 9.328125 C4.50498047 8.709375 4.01191406 8.090625 3.50390625 7.453125 C3.04830322 6.88754883 2.5927002 6.32197266 2.12329102 5.73925781 C0.89617312 3.83923871 0.42526307 2.2088291 0 0 Z"/>
<path transform="translate(283,259)" fill="#A51618" d="M0 0 C0.71484375 1.671875 0.71484375 1.671875 1 4 C-0.43359375 6.578125 -0.43359375 6.578125 -2.4375 9.25 C-3.42556641 10.58804687 -3.42556641 10.58804687 -4.43359375 11.953125 C-4.95050781 12.62859375 -5.46742188 13.3040625 -6 14 C-7.32 12.35 -8.64 10.7 -10 9 C-9.21625 8.236875 -8.4325 7.47375 -7.625 6.6875 C-4.92742283 4.09108195 -4.92742283 4.09108195 -3 1 C-2.01 0.67 -1.02 0.34 0 0 Z"/>
<path transform="translate(222,274)" fill="#B0AFAF" d="M0 0 C0.66 1.32 1.32 2.64 2 4 C-3.445 11.425 -3.445 11.425 -9 19 C-9.66 17.68 -10.32 16.36 -11 15 C-10.28972656 14.08476562 -9.57945312 13.16953125 -8.84765625 12.2265625 C-7.91918172 11.02611058 -6.99080118 9.82558597 -6.0625 8.625 C-5.59392578 8.02171875 -5.12535156 7.4184375 -4.64257812 6.796875 C-2.09448545 3.54591619 -2.09448545 3.54591619 0 0 Z"/>
<path transform="translate(205,197)" fill="#7B1616" d="M0 0 C0.66 0 1.32 0 2 0 C2.268125 0.78375 2.53625 1.5675 2.8125 2.375 C3.84814432 5.28114923 3.84814432 5.28114923 7 7 C7.33 8.98 7.66 10.96 8 13 C-2.23 13 -12.46 13 -23 13 C-23 12.67 -23 12.34 -23 12 C-13.43 12 -3.86 12 6 12 C3.69 8.37 1.38 4.74 -1 1 C-0.67 0.67 -0.34 0.34 0 0 Z"/>
<path transform="translate(150,165)" fill="#C51919" d="M0 0 C9.57 0 19.14 0 29 0 C29 0.33 29 0.66 29 1 C15.635 1.495 15.635 1.495 2 2 C2 2.66 2 3.32 2 4 C2.99 4.33 3.98 4.66 5 5 C5 6.32 5 7.64 5 9 C3.68 9 2.36 9 1 9 C0.67 6.03 0.34 3.06 0 0 Z"/>
<path transform="translate(176,158)" fill="#93090A" d="M0 0 C2.5 1.3125 2.5 1.3125 5 3 C5 3.99 5 4.98 5 6 C-4.9 6.33 -14.8 6.66 -25 7 C-25 9.31 -25 11.62 -25 14 C-26.5625 12.8125 -26.5625 12.8125 -28 11 C-27.57894737 6.57894737 -27.57894737 6.57894737 -26 5 C-23.9291528 4.8415735 -21.85321971 4.74875578 -19.77734375 4.68359375 C-18.51728516 4.64169922 -17.25722656 4.59980469 -15.95898438 4.55664062 C-14.61849264 4.51682404 -13.2779978 4.47711186 -11.9375 4.4375 C-10.59308477 4.39431958 -9.2486834 4.35070544 -7.90429688 4.30664062 C-4.6029766 4.20014642 -1.30157764 4.0981354 2 4 C1.34 2.68 0.68 1.36 0 0 Z"/>
<path transform="translate(267,287)" fill="#B3B2B2" d="M0 0 C3.17391668 3.00235362 5.71252601 6.19753642 8.25 9.75 C8.95640625 10.73484375 9.6628125 11.7196875 10.390625 12.734375 C10.92171875 13.48203125 11.4528125 14.2296875 12 15 C11.34 16.32 10.68 17.64 10 19 C8.35243739 16.70955906 6.70688669 14.41771923 5.0625 12.125 C4.59392578 11.47402344 4.12535156 10.82304687 3.64257812 10.15234375 C0.11328125 5.2265625 0.11328125 5.2265625 -1 3 C-0.67 2.01 -0.34 1.02 0 0 Z"/>
<path transform="translate(232,288)" fill="#ACADAC" d="M0 0 C0.66 0.99 1.32 1.98 2 3 C-2.95 9.93 -2.95 9.93 -8 17 C-8.99 16.34 -9.98 15.68 -11 15 C-7.37 10.05 -3.74 5.1 0 0 Z"/>
<path transform="translate(278,304)" fill="#CFC5C2" d="M0 0 C0.66 0 1.32 0 2 0 C3.40268922 1.69491614 4.72390346 3.457835 6 5.25 C7.051875 6.71179688 7.051875 6.71179688 8.125 8.203125 C9.62191333 10.43602072 10.88577861 12.56264072 12 15 C11.34 15.66 10.68 16.32 10 17 C0.96634008 5.21823641 0.96634008 5.21823641 0 0 Z"/>
<path transform="translate(349.3125,119.3125)" fill="#B11419" d="M0 0 C0.556875 0.226875 1.11375 0.45375 1.6875 0.6875 C0.2937718 5.12208973 -1.91832235 7.56128374 -5.3125 10.6875 C-5.456875 9.73875 -5.60125 8.79 -5.75 7.8125 C-6.14185399 4.7940506 -6.14185399 4.7940506 -7.3125 2.6875 C-2.88173077 -0.38942308 -2.88173077 -0.38942308 0 0 Z"/>
<path transform="translate(189,323)" fill="#FDFDFD" d="M0 0 C13.04227517 -0.12368859 25.98287961 0.17538604 39 1 C39 1.33 39 1.66 39 2 C25.89870557 2.80614913 13.08575002 3.1280819 0 2 C0 1.34 0 0.68 0 0 Z"/>
<path transform="translate(273,222)" fill="#951214" d="M0 0 C0.99 0.66 1.98 1.32 3 2 C1.52869627 6.3573226 -0.83080615 9.71934134 -3.625 13.3125 C-4.04523438 13.86228516 -4.46546875 14.41207031 -4.8984375 14.97851562 C-5.92720039 16.32292168 -6.9629009 17.66201413 -8 19 C-8.33 18.01 -8.66 17.02 -9 16 C-8.67 15.34 -8.34 14.68 -8 14 C-7.34 14 -6.68 14 -6 14 C-6 13.01 -6 12.02 -6 11 C-5.34 11 -4.68 11 -4 11 C-4 9.68 -4 8.36 -4 7 C-2.68 6.67 -1.36 6.34 0 6 C0 4.02 0 2.04 0 0 Z"/>
<path transform="translate(229,232)" fill="#911517" d="M0 0 C3 1.75 3 1.75 6 4 C6 5.32 6 6.64 6 8 C6.99 8.33 7.98 8.66 9 9 C9 9.66 9 10.32 9 11 C9.66 11 10.32 11 11 11 C11 11.99 11 12.98 11 14 C11.99 14.33 12.98 14.66 14 15 C13.34 15.66 12.68 16.32 12 17 C0 3.68587896 0 3.68587896 0 0 Z"/>
<path transform="translate(258,240)" fill="#AE1C1F" d="M0 0 C1.65 0 3.3 0 5 0 C5.33 0.66 5.66 1.32 6 2 C5.22265625 3.7265625 5.22265625 3.7265625 4.0625 5.625 C3.381875 6.73875 2.70125 7.8525 2 9 C0.29115995 7.37660195 -1.37446717 5.70680947 -3 4 C-3 3.34 -3 2.68 -3 2 C-2.34 2 -1.68 2 -1 2 C-0.67 1.34 -0.34 0.68 0 0 Z"/>
<path transform="translate(257,275)" fill="#C7C0C0" d="M0 0 C3.89768986 1.29922995 4.57247741 2.94675162 6.75 6.375 C7.38421875 7.35210937 8.0184375 8.32921875 8.671875 9.3359375 C10 12 10 12 9 15 C6 11.25 6 11.25 6 9 C5.34 9 4.68 9 4 9 C0 3.70588235 0 3.70588235 0 0 Z"/>
<path transform="translate(148,210)" fill="#8F1516" d="M0 0 C0.33 0.66 0.66 1.32 1 2 C1.66 2.33 2.32 2.66 3 3 C2.67 3.66 2.34 4.32 2 5 C2.763125 5.0825 3.52625 5.165 4.3125 5.25 C7.52373261 6.14615794 8.29374499 7.21611025 10 10 C9.67 10.66 9.34 11.32 9 12 C4.59712222 10.65467623 2.45241369 8.90569587 0 5 C-0.25 2.1875 -0.25 2.1875 0 0 Z"/>
<path transform="translate(218,262)" fill="#9E1D20" d="M0 0 C0.99 0.495 0.99 0.495 2 1 C2 1.66 2 2.32 2 3 C2.61875 3.061875 3.2375 3.12375 3.875 3.1875 C6 4 6 4 7.25 6.5625 C7.4975 7.366875 7.745 8.17125 8 9 C7.01 9.99 6.02 10.98 5 12 C4.15885829 10.56705502 3.32734313 9.12845595 2.5 7.6875 C1.80390625 6.48673828 1.80390625 6.48673828 1.09375 5.26171875 C0 3 0 3 0 0 Z"/>
<path transform="translate(195,339)" fill="#B6B6B6" d="M0 0 C0.66 0.99 1.32 1.98 2 3 C0.02 5.97 -1.96 8.94 -4 12 C-4.99 11.34 -5.98 10.68 -7 10 C-3.535 5.05 -3.535 5.05 0 0 Z"/>
<path transform="translate(198,234)" fill="#A2181A" d="M0 0 C5.78461538 3.32307692 5.78461538 3.32307692 6.875 6.75 C6.936875 7.86375 6.936875 7.86375 7 9 C5.68 9 4.36 9 3 9 C0 3.375 0 3.375 0 0 Z"/>
<path transform="translate(229,265)" fill="#C7BDBD" d="M0 0 C0.99 0 1.98 0 3 0 C1.51131293 4.60139641 -0.74629855 7.50227094 -4 11 C-4.66 11 -5.32 11 -6 11 C-4.54923295 6.88949336 -2.65754275 3.46285873 0 0 Z"/>
<path transform="translate(239,278)" fill="#CEC6C7" d="M0 0 C0.99 0 1.98 0 3 0 C1.125 4.75 1.125 4.75 0 7 C-0.66 7 -1.32 7 -2 7 C-2.28875 7.639375 -2.5775 8.27875 -2.875 8.9375 C-4 11 -4 11 -6 12 C-4.43358249 7.69235185 -2.31663844 3.93828536 0 0 Z"/>
<path transform="translate(278,308)" fill="#941E21" d="M0 0 C1.32 0.66 2.64 1.32 4 2 C2.02 4.97 2.02 4.97 0 8 C-0.33 7.34 -0.66 6.68 -1 6 C-1.99 5.67 -2.98 5.34 -4 5 C-2.68 3.35 -1.36 1.7 0 0 Z"/>
<path transform="translate(168,147)" fill="#9A1415" d="M0 0 C0.99 0 1.98 0 3 0 C3 0.66 3 1.32 3 2 C3.99 2 4.98 2 6 2 C6.77321882 4.98241547 7.41196203 7.97580475 8 11 C2.19794344 5.35475578 2.19794344 5.35475578 0 2 C0 1.34 0 0.68 0 0 Z"/>
<path transform="translate(306,343)" fill="#BBBBBB" d="M0 0 C4.04131267 1.34710422 4.90288434 3.38428334 7 7 C7 7.99 7 8.98 7 10 C6.01 10 5.02 10 4 10 C0 3.375 0 3.375 0 0 Z"/>
<path transform="translate(315,212)" fill="#A61815" d="M0 0 C0.99 0.33 1.98 0.66 3 1 C2.25 5.75 2.25 5.75 0 8 C-0.99 8 -1.98 8 -3 8 C-2.67 6.02 -2.34 4.04 -2 2 C-1.34 2 -0.68 2 0 2 C0 1.34 0 0.68 0 0 Z"/>
<path transform="translate(250,240)" fill="#C42C2E" d="M0 0 C0.66 0.33 1.32 0.66 2 1 C2 1.66 2 2.32 2 3 C1.34 3.66 0.68 4.32 0 5 C-0.73797743 6.19045994 -1.44478681 7.40061625 -2.125 8.625 C-3.053125 10.295625 -3.053125 10.295625 -4 12 C-4.66 10.68 -5.32 9.36 -6 8 C-4.02 5.36 -2.04 2.72 0 0 Z"/>
<path transform="translate(300,306)" fill="#BFBFBF" d="M0 0 C0.66 0 1.32 0 2 0 C4.8394052 3.67452438 6 5.26886581 6 10 C5.34 10 4.68 10 4 10 C1.1605948 6.32547562 0 4.73113419 0 0 Z"/>
<path transform="translate(277,264)" fill="#902023" d="M0 0 C0.33 0.66 0.66 1.32 1 2 C1.66 2 2.32 2 3 2 C2.43628586 5.26954202 1.50037734 6.82575883 -1 9 C-1.99 7.35 -2.98 5.7 -4 4 C-2.68 2.68 -1.36 1.36 0 0 Z"/>
<path transform="translate(224,316)" fill="#A71F22" d="M0 0 C1.875 0.3125 1.875 0.3125 4 1 C6 4 6 4 6 7 C4.68 7 3.36 7 2 7 C0 4 0 4 0 0 Z"/>
<path transform="translate(295,287)" fill="#A01B1E" d="M0 0 C0.75 1.75 0.75 1.75 1 4 C-0.9375 6.25 -0.9375 6.25 -3 8 C-3.66 6.68 -4.32 5.36 -5 4 C-3 1 -3 1 0 0 Z"/>
<path transform="translate(313,170)" fill="#981315" d="M0 0 C0.66 0 1.32 0 2 0 C0.6062718 4.43458973 -1.60582235 6.87378374 -5 10 C-5 8.02 -5 6.04 -5 4 C-3.35 3.34 -1.7 2.68 0 2 C0 1.34 0 0.68 0 0 Z"/>
<path transform="translate(244,249)" fill="#AB171A" d="M0 0 C0.66 0.33 1.32 0.66 2 1 C1.67 1.99 1.34 2.98 1 4 C2.98 4.66 4.96 5.32 7 6 C7 6.66 7 7.32 7 8 C4.1875 7.8125 4.1875 7.8125 1 7 C-0.875 4.4375 -0.875 4.4375 -2 2 C-1.34 1.34 -0.68 0.68 0 0 Z"/>
<path transform="translate(176,250)" fill="#A01918" d="M0 0 C0.66 0 1.32 0 2 0 C2 0.66 2 1.32 2 2 C3.32 2.33 4.64 2.66 6 3 C6 4.65 6 6.3 6 8 C5.01 8 4.02 8 3 8 C2.01 5.36 1.02 2.72 0 0 Z"/>
<path transform="translate(250,243)" fill="#CE191C" d="M0 0 C1.98 0.495 1.98 0.495 4 1 C5.0257259 5.41062136 5.03684712 7.92630576 3 12 C1.84058962 8.52176885 2.29179116 6.54104422 3 3 C1.68 2.67 0.36 2.34 -1 2 C-0.67 1.34 -0.34 0.68 0 0 Z"/>
<path transform="translate(312,216)" fill="#881514" d="M0 0 C0.33 0.66 0.66 1.32 1 2 C0.67 2.66 0.34 3.32 0 4 C0.66 4 1.32 4 2 4 C0.84826645 6.46800047 -0.04783565 8.04783565 -2 10 C-2 9.01 -2 8.02 -2 7 C-2.66 7 -3.32 7 -4 7 C-2.79618552 4.50638429 -1.54571278 2.31856917 0 0 Z"/>
<path transform="translate(301,184)" fill="#8F1214" d="M0 0 C1.32 0 2.64 0 4 0 C2.22054913 4.04420651 -0.39529673 7.46078487 -3 11 C-3.33 10.01 -3.66 9.02 -4 8 C-3.34 8 -2.68 8 -2 8 C-2 7.01 -2 6.02 -2 5 C-1.34 5 -0.68 5 0 5 C0 3.35 0 1.7 0 0 Z"/>
<path transform="translate(337,137)" fill="#931414" d="M0 0 C0.66 0 1.32 0 2 0 C0.22054913 4.04420651 -2.39529673 7.46078487 -5 11 C-5.33 10.01 -5.66 9.02 -6 8 C-5.34 8 -4.68 8 -4 8 C-4 6.35 -4 4.7 -4 3 C-3.01 3 -2.02 3 -1 3 C-0.67 2.01 -0.34 1.02 0 0 Z"/>
<path transform="translate(162,227)" fill="#8C1312" d="M0 0 C2.0625 1.75 2.0625 1.75 4 4 C3.75 6.0625 3.75 6.0625 3 8 C3 8.99 3 9.98 3 11 C0.9375 8.875 0.9375 8.875 -1 6 C-0.75 2.6875 -0.75 2.6875 0 0 Z"/>
<path transform="translate(286,302)" fill="#9D1D1E" d="M0 0 C-0.3125 2.375 -0.3125 2.375 -1 5 C-1.99 5.66 -2.98 6.32 -4 7 C-5.0625 5.125 -5.0625 5.125 -6 3 C-4.60722783 0.21445565 -3.01148006 0 0 0 Z"/>
<path transform="translate(227,272)" fill="#A01E21" d="M0 0 C2.89932357 2.39509338 3.50168276 4.31245243 4 8 C3.34 8 2.68 8 2 8 C2 7.34 2 6.68 2 6 C1.01 6 0.02 6 -1 6 C-1.625 4.125 -1.625 4.125 -2 2 C-1.34 1.34 -0.68 0.68 0 0 Z"/>
<path transform="translate(252,268)" fill="#B2B2B2" d="M0 0 C3 1 3 1 4.6875 4.0625 C5.120625 5.031875 5.55375 6.00125 6 7 C5.34 7.66 4.68 8.32 4 9 C0 3.375 0 3.375 0 0 Z"/>
<path transform="translate(211,290)" fill="#D9C9C8" d="M0 0 C0.6875 1.8125 0.6875 1.8125 1 4 C-0.375 5.5625 -0.375 5.5625 -2 7 C-2.33 7.99 -2.66 8.98 -3 10 C-3.66 10 -4.32 10 -5 10 C-5 8.68 -5 7.36 -5 6 C-4.34 6 -3.68 6 -3 6 C-2.690625 5.195625 -2.38125 4.39125 -2.0625 3.5625 C-1 1 -1 1 0 0 Z"/>
<path transform="translate(259,250)" fill="#BEBCBF" d="M0 0 C3 1 3 1 5 4 C4.625 6.1875 4.625 6.1875 4 8 C2.35 6.02 0.7 4.04 -1 2 C-0.67 1.34 -0.34 0.68 0 0 Z"/>
<path transform="translate(283,208)" fill="#B81414" d="M0 0 C1.32 0 2.64 0 4 0 C4.33 0.99 4.66 1.98 5 3 C3.68 3 2.36 3 1 3 C0.67 4.65 0.34 6.3 0 8 C-0.33 8 -0.66 8 -1 8 C-1.125 2.25 -1.125 2.25 0 0 Z"/>
<path transform="translate(351,120)" fill="#A01214" d="M0 0 C-1.75 4.875 -1.75 4.875 -4 6 C-4.66 4.02 -5.32 2.04 -6 0 C-3.50907189 -1.24546405 -2.58919267 -0.7767578 0 0 Z"/>
<path transform="translate(205,197)" fill="#931414" d="M0 0 C0.66 0 1.32 0 2 0 C2.268125 0.78375 2.53625 1.5675 2.8125 2.375 C3.84814432 5.28114923 3.84814432 5.28114923 7 7 C7 7.66 7 8.32 7 9 C6.01 9 5.02 9 4 9 C2.61328125 7.25 2.61328125 7.25 1.3125 5 C0.87550781 4.2575 0.43851563 3.515 -0.01171875 2.75 C-0.33785156 2.1725 -0.66398438 1.595 -1 1 C-0.67 0.67 -0.34 0.34 0 0 Z"/>
<path transform="translate(155,172)" fill="#8C1512" d="M0 0 C0.99 0.66 1.98 1.32 3 2 C2.34 3.65 1.68 5.3 1 7 C-0.32 5.68 -1.64 4.36 -3 3 C-2.01 2.67 -1.02 2.34 0 2 C0 1.34 0 0.68 0 0 Z"/>
<path transform="translate(193,315)" fill="#B4B4B4" d="M0 0 C0.66 0 1.32 0 2 0 C1.43628586 3.26954202 0.50037734 4.82575883 -2 7 C-2.66 6.34 -3.32 5.68 -4 5 C-2.71937515 3.2925002 -1.38232443 1.62626404 0 0 Z"/>
<path transform="translate(210,295)" fill="#8F2125" d="M0 0 C0.99 0.33 1.98 0.66 3 1 C3.33 1.99 3.66 2.98 4 4 C2.02 4.99 2.02 4.99 0 6 C-0.66 4.68 -1.32 3.36 -2 2 C-1.34 1.34 -0.68 0.68 0 0 Z"/>
<path transform="translate(288,294)" fill="#941C1E" d="M0 0 C0.66 0 1.32 0 2 0 C2.6875 1.8125 2.6875 1.8125 3 4 C1.5625 5.75 1.5625 5.75 0 7 C-1 6 -1 6 -1.125 3.5 C-1 1 -1 1 0 0 Z"/>
<path transform="translate(242,294)" fill="#9E2224" d="M0 0 C0.66 0 1.32 0 2 0 C4 3 4 3 3.625 5.6875 C3.41875 6.450625 3.2125 7.21375 3 8 C2.34 7.67 1.68 7.34 1 7 C0.59270772 4.67843403 0.25561323 2.3431213 0 0 Z"/>
<path transform="translate(277,273)" fill="#A3A6A6" d="M0 0 C2.52588702 2.36292656 3.88820837 3.66462511 5 7 C4.01 7.33 3.02 7.66 2 8 C0.4375 5.6875 0.4375 5.6875 -1 3 C-0.67 2.01 -0.34 1.02 0 0 Z"/>
<path transform="translate(222,222)" fill="#841311" d="M0 0 C3.21029714 1.10699901 4.00968977 2.01603825 5.8125 5 C6.204375 5.99 6.59625 6.98 7 8 C6.67 8.66 6.34 9.32 6 10 C4.99421411 8.71283353 3.99553202 7.42011342 3 6.125 C2.443125 5.40570313 1.88625 4.68640625 1.3125 3.9453125 C0 2 0 2 0 0 Z"/>
<path transform="translate(320,208)" fill="#C51917" d="M0 0 C0.33 0.66 0.66 1.32 1 2 C1.99 2.33 2.98 2.66 4 3 C1.69 3.66 -0.62 4.32 -3 5 C-3.66 4.34 -4.32 3.68 -5 3 C-3.35 2.01 -1.7 1.02 0 0 Z"/>
<path transform="translate(329,148)" fill="#8B1213" d="M0 0 C0.66 0 1.32 0 2 0 C0.6062718 4.43458973 -1.60582235 6.87378374 -5 10 C-4.34 8.02 -3.68 6.04 -3 4 C-2.34 4 -1.68 4 -1 4 C-0.67 2.68 -0.34 1.36 0 0 Z"/>
<path transform="translate(285,314)" fill="#A6A5A4" d="M0 0 C1.9375 0.8125 1.9375 0.8125 4 2 C4.33 2.99 4.66 3.98 5 5 C4.34 5.66 3.68 6.32 3 7 C1.68 5.02 0.36 3.04 -1 1 C-0.67 0.67 -0.34 0.34 0 0 Z"/>
<path transform="translate(221,304)" fill="#E6D6D3" d="M0 0 C0.66 0 1.32 0 2 0 C0.73058503 3.91402949 -0.51167694 5.79072873 -4 8 C-3.40312566 4.65750371 -2.26396123 2.53563658 0 0 Z"/>
<path transform="translate(205,298)" fill="#A2A6A4" d="M0 0 C0.66 0.99 1.32 1.98 2 3 C0.68 4.32 -0.64 5.64 -2 7 C-2.66 6.34 -3.32 5.68 -4 5 C-2.68 3.35 -1.36 1.7 0 0 Z"/>
<path transform="translate(205,241)" fill="#851211" d="M0 0 C0.99 0.99 1.98 1.98 3 3 C2.67 3.66 2.34 4.32 2 5 C2 5.66 2 6.32 2 7 C1.67 7.66 1.34 8.32 1 9 C-0.625 7.3125 -0.625 7.3125 -2 5 C-1.1875 2.25 -1.1875 2.25 0 0 Z"/>
<path transform="translate(216,310)" fill="#A7AAAC" d="M0 0 C0.66 0.99 1.32 1.98 2 3 C0.68 4.65 -0.64 6.3 -2 8 C-2.6875 6.25 -2.6875 6.25 -3 4 C-1.5625 1.75 -1.5625 1.75 0 0 Z"/>
<path transform="translate(222,274)" fill="#A3A1A2" d="M0 0 C0.66 1.32 1.32 2.64 2 4 C0.68 5.32 -0.64 6.64 -2 8 C-2.6875 6.25 -2.6875 6.25 -3 4 C-1.5625 1.75 -1.5625 1.75 0 0 Z"/>
<path transform="translate(267,287)" fill="#A29DA0" d="M0 0 C1.32 1.32 2.64 2.64 4 4 C3.34 5.32 2.68 6.64 2 8 C0.4375 5.6875 0.4375 5.6875 -1 3 C-0.67 2.01 -0.34 1.02 0 0 Z"/>
<path transform="translate(194,271)" fill="#901313" d="M0 0 C0.99 1.32 1.98 2.64 3 4 C1.35 4.33 -0.3 4.66 -2 5 C-2.66 3.68 -3.32 2.36 -4 1 C-2.68 0.67 -1.36 0.34 0 0 Z"/>
<path transform="translate(205,245)" fill="#B91919" d="M0 0 C1.32 0 2.64 0 4 0 C4.33 1.65 4.66 3.3 5 5 C4.01 5.66 3.02 6.32 2 7 C1.34 4.69 0.68 2.38 0 0 Z"/>
<path transform="translate(247,238)" fill="#C3292C" d="M0 0 C0.66 0.33 1.32 0.66 2 1 C0.02 3.97 0.02 3.97 -2 7 C-2.66 5.68 -3.32 4.36 -4 3 C-2.68 2.01 -1.36 1.02 0 0 Z"/>
<path transform="translate(193,182)" fill="#8B1318" d="M0 0 C1.32 0.33 2.64 0.66 4 1 C4.66 3.31 5.32 5.62 6 8 C1.125 3.375 1.125 3.375 0 0 Z"/>
<path transform="translate(153,169)" fill="#AB141D" d="M0 0 C0.66 0.33 1.32 0.66 2 1 C2 2.32 2 3.64 2 5 C0.68 5 -0.64 5 -2 5 C-2 3.68 -2 2.36 -2 1 C-1.34 0.67 -0.68 0.34 0 0 Z"/>
<path transform="translate(342,130)" fill="#961114" d="M0 0 C0.66 0 1.32 0 2 0 C0.75023244 3.65316671 0.32901247 4.78065836 -3 7 C-3 5.35 -3 3.7 -3 2 C-2.01 2 -1.02 2 0 2 C0 1.34 0 0.68 0 0 Z"/>
</svg>